<svg width="71" height="71" viewBox="0 0 71 71" fill="none" xmlns="http://www.w3.org/2000/svg">
<g clip-path="url(#clip0)">
<path d="M70.034 24.2306C68.4441 23.2862 66.4614 23.6909 64.1463 25.4078C65.7095 24.2919 66.7474 21.488 67.0218 18.7704C67.3674 15.4452 66.7532 11.6277 64.9101 10.7621C64.8954 10.7552 64.8792 10.7571 64.8643 10.7502C64.7919 10.7245 64.7172 10.706 64.6412 10.695C64.5633 10.6734 64.4834 10.6596 64.4028 10.6539C64.3657 10.6539 64.3301 10.6657 64.293 10.6694C64.0092 10.6887 63.7421 10.8099 63.5407 11.0107C62.0457 12.1073 61.2426 15.2786 60.8331 17.8812C60.472 19.8335 60.499 21.8378 60.9124 23.7797C59.5232 21.4032 57.8521 20.8294 56.6313 20.8049C55.7423 20.8187 54.9655 21.4092 54.7144 22.2622C54.0657 24.4114 54.2349 26.7247 55.1893 28.7567C55.5129 29.5537 55.9342 30.3075 56.4437 31.0006C55.7172 30.1016 54.7117 29.4705 53.5862 29.2073C52.6898 29.0321 51.7855 29.4698 51.3668 30.2815C50.3775 32.3601 50.2575 34.7473 51.0334 36.9147C51.1921 37.4592 51.3885 37.9921 51.6211 38.5095C51.0139 37.7499 50.2282 37.1523 49.3341 36.77C48.4671 36.4244 47.4761 36.6942 46.9039 37.4316C45.5854 39.3906 45.1623 41.8179 45.7402 44.1075C45.9881 46.3469 47.0769 48.4087 48.7866 49.8762C48.5068 50.2075 48.2078 50.5448 47.9068 50.8833H46.0892C45.8162 48.8094 44.2966 47.1165 42.264 46.622C41.4848 46.4285 40.8317 45.8989 40.4815 45.1764L40.2317 44.6837V36.8469C46.9894 32.0666 51.5171 24.7477 52.7775 16.5667H53.84C57.4328 16.5626 60.3443 13.6511 60.3483 10.0583C60.3441 6.46561 57.4327 3.55418 53.84 3.55H52.7359C52.6191 2.91278 52.4883 2.30597 52.3464 1.73394C52.0938 0.713837 51.1774 -0.00197884 50.1265 4.10957e-06H20.8702C19.8193 -0.00197884 18.9028 0.713837 18.6503 1.73394C18.5083 2.30597 18.3781 2.91278 18.2607 3.55H17.1567C13.5639 3.55418 10.6525 6.46561 10.6483 10.0583C10.6524 13.6511 13.5639 16.5626 17.1567 16.5667H18.2191C19.4794 24.7478 24.0071 32.0666 30.765 36.8468V44.6835L30.509 45.1874C30.1572 45.9067 29.5042 46.4327 28.7265 46.6233C26.7019 47.1284 25.1892 48.8158 24.9075 50.8833H23.0897C22.7885 50.5447 22.4895 50.2068 22.2096 49.8759C23.9192 48.4084 25.008 46.3468 25.2562 44.1075C25.8343 41.8167 25.4103 39.3881 24.0903 37.4287C23.5173 36.6908 22.5241 36.4228 21.6577 36.7723C20.7651 37.1541 19.981 37.751 19.3753 38.5096C19.6079 37.9923 19.8043 37.4595 19.963 36.915C20.7392 34.7466 20.6186 32.3582 19.6279 30.279C19.2065 29.4686 18.3016 29.0327 17.4052 29.2083C16.2803 29.4722 15.2756 30.1039 14.5502 31.0033C15.0605 30.3098 15.4824 29.5555 15.8064 28.7577C16.7614 26.7244 16.93 24.4095 16.2797 22.2592C16.0166 21.4134 15.2441 20.829 14.3585 20.806C13.1436 20.8305 11.4736 21.4039 10.0835 23.7812C10.4971 21.8374 10.5238 19.8312 10.162 17.8771C9.74781 15.243 8.92787 12.0207 7.39191 10.9688C7.35711 10.9422 7.3208 10.9177 7.28316 10.8953C7.21639 10.8443 7.14678 10.7971 7.07466 10.754C7.06022 10.7475 7.04448 10.7498 7.02993 10.7438C6.95315 10.7176 6.87382 10.6995 6.79326 10.6898C6.72176 10.6718 6.64875 10.6605 6.57517 10.6559C6.51885 10.6612 6.46297 10.6705 6.40797 10.6837C6.30667 10.695 6.20725 10.7192 6.11213 10.7558C6.10361 10.7595 6.0945 10.7582 6.08598 10.7621C4.24282 11.6277 3.62867 15.4457 3.97361 18.767C4.24933 21.4896 5.28853 24.2964 6.85396 25.4107C4.53605 23.6909 2.55302 23.2868 0.964397 24.2295C0.204513 24.7673 -0.162017 25.706 0.0324035 26.6164C0.428378 29.2697 1.94554 31.6249 4.19774 33.0825L4.20235 33.0854C5.30227 33.8689 6.60847 34.3114 7.95813 34.3577C8.62634 34.3601 9.28679 34.2146 9.89217 33.9317C10.1449 34.5679 10.4138 35.1998 10.69 35.8304C10.4636 35.7167 10.2375 35.6027 9.99832 35.4959C7.22316 34.2438 5.0327 34.2415 3.48998 35.493C2.79237 36.1431 2.55519 37.1495 2.88909 38.0428C3.74923 40.6427 5.75951 42.7012 8.33834 43.6226L8.34295 43.6243C9.28092 43.9896 10.2768 44.1835 11.2833 44.1969C12.4354 44.2141 13.5634 43.8662 14.5056 43.2029C14.8644 43.7946 15.2355 44.3768 15.6117 44.9542C15.2486 44.849 14.8745 44.7523 14.4843 44.6681C11.4254 43.9955 9.14951 44.4294 7.72182 45.9537C7.08936 46.703 6.98714 47.7657 7.46516 48.6219C8.79627 51.0922 11.2284 52.7771 14.009 53.1552L14.0136 53.1558C14.5286 53.2382 15.0493 53.2802 15.5709 53.2812C16.7933 53.3003 18.0009 53.0116 19.0826 52.4419C18.985 52.7003 18.9339 52.9738 18.9317 53.25V55.6167C18.9338 56.354 19.2812 57.0478 19.8702 57.4914L18.0391 63.9H17.7483C16.4418 63.9013 15.383 64.9601 15.3817 66.2667V68.6333C15.383 69.9399 16.4418 70.9987 17.7483 71H53.2483C54.5549 70.9987 55.6137 69.9399 55.615 68.6333V66.2667C55.6137 64.9601 54.5549 63.9013 53.2483 63.9H52.9576L51.1265 57.4914C51.7155 57.0478 52.0628 56.354 52.065 55.6167V53.25C52.0626 52.974 52.0114 52.7007 51.9139 52.4425C52.9956 53.0119 54.2031 53.3003 55.4254 53.2812C55.947 53.2802 56.4677 53.2382 56.9827 53.1558L56.9877 53.1553C59.7682 52.7773 62.2004 51.0924 63.5315 48.622C64.0094 47.7677 63.9092 46.7068 63.2797 45.9571C61.849 44.4294 59.5724 43.9937 56.5176 44.6663C56.1255 44.751 55.7495 44.8482 55.3848 44.9541C55.7617 44.3763 56.1333 43.7945 56.4917 43.2028C57.4336 43.8662 58.5615 44.2142 59.7135 44.1968C60.7202 44.1832 61.7163 43.989 62.6544 43.6236L62.659 43.6219C65.2377 42.7005 67.2479 40.6423 68.1083 38.0426C68.4421 37.1505 68.2061 36.1451 67.5102 35.4946C65.9635 34.2425 63.7736 34.2425 61.0031 35.4934C60.7621 35.6011 60.5343 35.7156 60.3064 35.8303C60.5833 35.1985 60.8524 34.5659 61.1047 33.9309C61.71 34.214 62.3704 34.3597 63.0386 34.3575C64.3882 34.3113 65.6943 33.8691 66.7943 33.086L66.7989 33.083C69.0511 31.6255 70.5683 29.2703 70.9642 26.617C71.1589 25.7071 70.7931 24.7687 70.034 24.2306ZM63.7569 25.6447C63.8488 25.5989 63.9382 25.5483 64.0248 25.493L64.0058 25.5064C63.9123 25.5768 63.8276 25.6499 63.7368 25.7212C63.7431 25.6957 63.7506 25.6702 63.7569 25.6447ZM63.1726 18.244C63.3719 16.7359 63.76 15.2588 64.3278 13.8475C64.7499 15.3701 64.8655 16.9613 64.668 18.5289C64.5678 20.1527 64.0485 21.7228 63.1606 23.086C62.8567 21.4859 62.8608 19.8426 63.1726 18.244ZM56.8994 23.2052C57.9736 23.4218 58.7531 24.6242 59.2305 25.6417C60.0307 27.2193 60.2215 29.0365 59.7666 30.746L59.7512 30.7912C58.611 30.1526 57.7607 29.0992 57.377 27.85L57.3758 27.8472C56.6773 26.4036 56.5087 24.7605 56.8994 23.2052ZM58.9255 33.0032C58.706 33.5572 58.4713 34.1092 58.2324 34.6608C58.1676 34.416 58.1033 34.171 58.0209 33.9257C57.7154 32.9801 57.2577 32.0908 56.6657 31.2927C57.2557 32.0514 58.0351 32.6413 58.9255 33.0032ZM53.3548 31.5981C54.5747 32.2226 55.4603 33.3495 55.7788 34.6824C56.424 36.3478 56.3925 38.1994 55.691 39.8418L55.6695 39.8798L55.6663 39.8856C54.4442 39.0227 53.5998 37.7236 53.3075 36.2564L53.3063 36.2534C52.7551 34.7475 52.7724 33.0922 53.3548 31.5981ZM54.4877 41.9404C54.1756 42.4565 53.8525 42.9638 53.5259 43.4688C53.4827 43.0926 53.4232 42.7123 53.3404 42.3278C53.1962 41.664 52.9891 41.0154 52.7221 40.3908C53.2001 41.0209 53.8006 41.5478 54.4875 41.9398L54.4877 41.9404ZM21.2983 53.25H49.6983L49.7001 55.6167H21.2983V53.25ZM48.0724 43.7048V43.7013C47.6655 42.137 47.872 40.4763 48.6497 39.0592C49.973 39.8899 50.8479 41.2762 51.0281 42.8283C51.4993 44.5504 51.2556 46.3897 50.3523 47.9297L50.3314 47.9579L50.2731 48.0385C49.0081 46.9318 48.2196 45.3791 48.0724 43.7048ZM53.84 5.91667C56.1258 5.92051 57.9778 7.77255 57.9817 10.0583C57.9789 12.3446 56.1262 14.1973 53.84 14.2H53.1055C53.3963 11.4461 53.3881 8.66881 53.081 5.91667H53.84ZM17.1567 14.2C14.8704 14.1973 13.0177 12.3446 13.015 10.0583C13.0188 7.77255 14.8709 5.92051 17.1567 5.91667H17.9156C17.6085 8.6688 17.6003 11.4461 17.8912 14.2H17.1567ZM20.8702 2.36667H50.0652C50.4464 3.96086 55.1983 25.5052 36.5955 36.3875C35.9177 36.7831 35.0792 36.7829 34.4016 36.3869C15.4882 25.3233 20.7159 3.23855 20.8702 2.36667ZM33.2056 38.4289C34.6217 39.2569 36.3741 39.2571 37.7904 38.4295C37.8161 38.4146 37.8394 38.3983 37.865 38.3833V43.7833H33.1317V38.3831C33.157 38.398 33.1802 38.414 33.2056 38.4289ZM29.295 48.9205C30.7454 48.5654 31.9645 47.5869 32.625 46.2476L32.6747 46.15H38.322L38.3659 46.2366C39.0233 47.5772 40.2396 48.5585 41.6888 48.9177C42.6673 49.1546 43.4367 49.9096 43.6921 50.8833H27.3052C27.561 49.9152 28.3235 49.1631 29.295 48.9205ZM19.9688 42.8311C20.1479 41.2779 21.023 39.8902 22.3473 39.0592C23.1245 40.4765 23.3309 42.137 22.9246 43.7013L22.924 43.7048C22.7761 45.3782 21.9885 46.93 20.7251 48.0373L20.6659 47.9579L20.6416 47.925C19.7412 46.3867 19.4987 44.5504 19.9688 42.8311ZM17.6559 42.3302C17.5731 42.7135 17.5139 43.0926 17.4706 43.4679C17.1441 42.9629 16.8211 42.4556 16.509 41.9397C17.1964 41.5468 17.7973 41.0191 18.2757 40.3884C18.008 41.0145 17.8005 41.6647 17.6559 42.3302ZM15.2175 34.6847C15.5354 33.3507 16.4212 32.2226 17.6418 31.5975C18.2239 33.0919 18.2411 34.7472 17.6903 36.2534L17.6892 36.2564C17.3967 37.7234 16.5522 39.0222 15.3299 39.8847L15.3271 39.8798L15.3034 39.8374C14.6043 38.1967 14.5735 36.3478 15.2175 34.6847ZM12.9751 33.9274C12.893 34.1718 12.829 34.4162 12.7644 34.6603C12.5256 34.109 12.291 33.5569 12.0708 33.0014C12.9622 32.6391 13.7425 32.0486 14.3332 31.2891C13.7398 32.0889 13.2811 32.9802 12.9751 33.9278V33.9274ZM11.7652 25.644C12.2442 24.623 13.0254 23.4183 14.0973 23.2046C14.4879 24.7601 14.3193 26.4034 13.6211 27.8472L13.6199 27.85C13.236 29.0991 12.3856 30.1522 11.2453 30.7905L11.2292 30.7431C10.7758 29.0354 10.9666 27.2206 11.7652 25.6445V25.644ZM6.6625 13.8332C7.23377 15.2469 7.62367 16.7273 7.82288 18.239C8.13424 19.8362 8.13942 21.478 7.83814 23.0771C6.9472 21.7172 6.42669 20.1483 6.32809 18.5256C6.13262 16.9546 6.24622 15.3605 6.6625 13.8332ZM7.24032 25.6447C7.24659 25.6702 7.25417 25.6955 7.26044 25.7209C7.1711 25.6509 7.08791 25.5789 6.99608 25.5098L6.9704 25.4918C7.05759 25.5476 7.14769 25.5986 7.24032 25.6447ZM5.49372 31.1024C3.80759 30.009 2.67087 28.2454 2.37138 26.2582C2.36742 26.2307 2.36528 26.2031 2.36499 26.1753C3.2577 25.8599 4.57912 26.6457 5.56721 27.3974C7.11916 28.4753 8.32871 29.9765 9.05189 31.7222C8.15681 32.221 6.87881 32.0037 5.49372 31.1024ZM9.17495 41.4092C7.26758 40.738 5.77732 39.2231 5.1373 37.3051C5.12931 37.2806 5.12369 37.2554 5.1205 37.2299C5.9312 36.7059 7.24281 36.8481 9.02869 37.6552C10.7953 38.3332 12.2979 39.5601 13.3154 41.1555C12.0859 41.9921 10.4973 42.0892 9.17495 41.4086V41.4092ZM14.3849 50.8192C12.339 50.5779 10.5402 49.352 9.56723 47.5362C9.55748 47.5167 9.55013 47.4961 9.54534 47.4749C10.3855 46.6839 11.8779 46.517 13.9799 46.9804C15.8771 47.2634 17.6207 48.186 18.9218 49.5955C18.325 50.2917 17.0013 51.2289 14.3849 50.8186V50.8192ZM53.2501 68.6333H17.7483V66.2667H53.2483L53.2501 68.6333ZM20.5004 63.9L22.191 57.9833H48.8056L50.4962 63.9H20.5004ZM57.0214 46.9783C59.1159 46.5161 60.6049 46.6819 61.4513 47.4746C61.4465 47.4957 61.4392 47.5161 61.4294 47.5353C60.4565 49.3512 58.6576 50.577 56.6117 50.8184C53.9903 51.2263 52.6693 50.288 52.0742 49.5958C53.3769 48.1851 55.1223 47.2617 57.0214 46.9783ZM61.9726 37.6526C63.7532 36.8479 65.0626 36.7059 65.8761 37.2297C65.8729 37.2552 65.8673 37.2804 65.8593 37.3048C65.2191 39.2226 63.7289 40.7372 61.8217 41.4084C60.4995 42.0897 58.9104 41.9923 57.6812 41.1547C58.6999 39.5581 60.2041 38.3307 61.9726 37.6528V37.6526ZM68.6253 26.2578C68.3258 28.2451 67.1891 30.0087 65.5029 31.1021C64.1162 32.0053 62.8352 32.2213 61.9419 31.7198C62.6673 29.9728 63.8795 28.471 65.4342 27.3932C66.4169 26.6456 67.7372 25.8621 68.6317 26.1744C68.6314 26.2024 68.6293 26.2304 68.6253 26.2582V26.2578Z" fill="#BABABA"/>
</g>
<defs>
<clipPath id="clip0">
<rect width="71" height="71" fill="white"/>
</clipPath>
</defs>
</svg>
