<svg width="395" height="420" viewBox="0 0 395 420" fill="none" xmlns="http://www.w3.org/2000/svg">
<g opacity="0.7" clip-path="url(#clip0)">
<path d="M152.466 196.734C152.595 201.098 152.702 205.468 152.848 209.837C152.944 212.831 153.214 215.83 153.191 218.823C153.146 225.94 153.118 233.061 152.792 240.166C152.556 245.294 151.668 250.394 151.414 255.522C151.274 258.375 152.084 261.262 152.044 264.132C151.966 269.748 151.482 275.365 151.375 280.981C151.246 288.215 151.341 295.449 151.341 302.324C156.099 305.267 160.569 304.093 164.837 304.177C177.333 304.432 189.83 304.563 202.328 304.57C216.702 304.57 231.069 304.351 245.443 304.205C245.88 304.128 246.304 303.99 246.702 303.795C247.028 298.864 247.461 293.871 247.664 288.867C247.9 283.009 247.894 277.134 248.097 271.276C248.153 269.518 248.794 267.777 248.777 266.03C248.586 245.064 248.215 224.092 248.091 203.125C247.973 187.023 248.063 170.926 248.063 154.824C248.063 147.208 248.063 139.598 248.063 131.982C248.063 130.358 247.9 128.735 247.816 127.101C246.691 126.708 245.713 126.051 244.7 126.039C235.332 125.961 225.958 125.994 216.584 125.994C215.588 125.994 214.587 125.966 213.586 125.994C202.587 126.365 191.593 126.843 180.594 127.073C174.971 127.191 169.347 126.837 163.724 126.753C159.844 126.696 155.958 126.753 151.729 126.753C151.729 136.733 151.684 145.972 151.729 155.211C151.769 161.198 151.921 167.191 152.101 173.184C152.297 179.924 152.607 186.664 152.815 193.403C152.777 194.409 152.658 195.41 152.46 196.397" stroke="black" stroke-width="2" stroke-linecap="round" stroke-linejoin="round"/>
<path d="M23.1289 159.665C26.5029 159.665 29.8769 159.626 33.2509 159.665C50.6214 159.901 67.992 160.182 85.3625 160.373C87.4994 160.373 89.6419 159.935 92.1106 159.654C92.3636 151.931 92.5604 144.562 92.8641 137.188C92.9484 135.059 93.5558 132.942 93.5501 130.819C93.5164 122.585 93.2577 114.346 93.2296 106.106C93.1734 88.3864 93.2577 70.6608 93.1959 52.9409C93.1565 41.5787 92.9653 30.2222 92.8303 18.8657C92.7553 18.3259 92.6387 17.7926 92.4817 17.2706C66.4568 16.299 40.4713 17.6188 14.109 18.2142V26.3637C14.109 32.8563 13.9178 39.3546 14.1652 45.836C14.4352 52.9577 15.2337 60.0569 15.5598 67.1786C15.7229 70.7844 15.1999 74.4183 15.2674 78.0353C15.4136 85.7748 16.0659 93.5199 15.886 101.248C15.7229 108.375 13.7266 115.57 14.3677 122.591C15.1606 131.324 13.5129 139.845 13.8672 148.427C14.0303 152.313 12.8944 156.75 16.4314 160.193L22.7352 159.665" stroke="black" stroke-width="2" stroke-linecap="round" stroke-linejoin="round"/>
<path d="M97.3572 11.3902C95.5633 4.42578 90.6091 1.20193 83.8611 0.977266C71.9958 0.584113 60.1193 0.527948 48.2484 0.572879C39.4985 0.606578 30.7541 0.977266 22.0042 1.29741C14.8682 1.55576 10.3976 6.91388 10.392 15.1308C10.392 41.4664 10.4707 67.8021 10.3301 94.1377C10.2908 102.001 9.58222 109.864 9.2898 117.727C9.20545 120.091 9.65532 122.473 9.61033 124.843C9.41352 135.7 8.90179 146.562 9.01426 157.419C9.13181 161.161 10.0462 164.835 11.6966 168.197C13.0799 171.083 16.0884 173.015 19.4118 173.869C20.8779 174.287 22.3875 174.534 23.9105 174.605C28.4092 174.7 32.9079 174.554 37.4066 174.661C44.6551 174.835 51.898 175.29 59.1465 175.346C66.5187 175.408 73.9246 175.498 81.2575 174.875C85.526 174.467 89.6921 173.327 93.5726 171.505C97.2559 169.792 98.0713 165.888 98.1613 161.917C98.3469 150.432 98.7967 138.952 98.8305 127.466C98.8305 119.232 98.24 110.993 98.1725 102.753C98.0488 88.7796 98.2288 74.7946 98.1051 60.8208C98.0263 51.5817 97.5427 42.3482 97.4134 33.1091C97.2953 25.9987 97.4134 18.8826 97.4134 11.7665" stroke="black" stroke-width="2" stroke-linecap="round" stroke-linejoin="round"/>
<path d="M2.13686 244.283V258.886C2.13686 279.105 2.23808 299.324 2.08625 319.544C2.02439 327.283 1.31585 335.017 1.04593 342.762C0.950329 345.627 1.41707 348.502 1.36083 351.372C1.19213 359.735 1.00094 368.104 0.596057 376.455C0.348629 381.51 1.44518 386.279 2.8454 391.058C3.8801 394.658 8.13135 398.427 14.5251 399.275C14.6506 399.284 14.7764 399.284 14.9019 399.275C29.6463 399.652 44.3907 400.32 59.1352 400.275C66.3893 400.275 73.6659 399.152 80.8694 398.085C86.8752 397.208 89.6531 393.844 89.8668 387.666C90.2323 375.692 90.5866 363.706 90.5978 351.721C90.5978 340.735 90.0974 329.755 89.9174 318.769C89.8162 312.282 89.8387 305.789 89.9512 299.296C89.9512 297.92 90.6485 296.55 91.0252 295.179" stroke="black" stroke-width="2" stroke-linecap="round" stroke-linejoin="round"/>
<path d="M298.302 403.42H373.655C373.655 401.061 373.548 398.674 373.655 396.304C373.97 390.435 374.679 384.571 374.712 378.708C374.836 355.742 374.712 332.776 374.78 309.81C374.78 300.201 375.157 290.591 375.083 280.981C375.033 274.483 374.521 267.996 374.161 261.127C348.007 259.442 322.027 262.222 296.036 261.885" stroke="black" stroke-width="2" stroke-linecap="round" stroke-linejoin="round"/>
<path d="M146.843 176.885C146.719 185.872 146.517 194.858 146.494 203.844C146.494 209.961 146.961 216.083 146.792 222.193C146.466 234.426 145.752 246.653 145.369 258.886C144.998 270.866 144.908 282.851 144.571 294.831C144.385 301.217 145.802 307.255 147.945 313.18C150.29 319.617 156.723 322.358 162.566 322.785C168.751 323.239 175.061 322.414 181.297 322.605C189.552 322.852 197.79 323.807 206.04 323.958C213.406 324.093 220.79 323.661 228.156 323.245C232.432 323.075 236.687 322.553 240.876 321.684C244.057 320.967 247.088 319.703 249.834 317.949C253.287 315.702 253.968 311.849 254.029 307.94C254.136 300.948 254.294 293.961 254.395 286.968C254.536 276.859 254.777 266.749 254.732 256.639C254.693 248.9 254.131 241.166 254.074 233.426C254.074 228.563 254.682 223.693 254.721 218.824C254.721 215.33 254.091 211.837 254.058 208.338C253.962 197.604 254.153 186.871 253.996 176.138C253.726 158.289 253.265 140.44 252.905 122.596C252.697 112.594 249.053 107.937 239.769 106.55C234.442 105.763 229.077 105.262 223.697 105.051C215.706 104.719 207.693 104.455 199.708 104.686C186.454 105.073 173.205 105.725 159.968 106.55C152.393 107.022 147.36 112.728 147.231 120.35C147.056 130.83 146.978 141.316 146.843 151.802C146.73 160.04 146.607 168.277 146.472 176.515" stroke="black" stroke-width="2" stroke-linecap="round" stroke-linejoin="round"/>
<path d="M311.798 166.776C314.795 166.776 317.798 166.697 320.795 166.776C331.542 167.113 342.282 167.64 353.034 167.843C362.903 168.028 372.778 167.916 382.652 167.843C383.918 167.843 385.183 167.281 386.549 166.922C387.112 158.154 388 149.55 388.203 140.923C388.484 128.696 388.321 116.463 388.259 104.23C388.186 89.3805 388 74.5249 387.91 59.675C387.854 51.0593 387.91 42.4493 387.877 33.8392C387.877 31.0871 387.59 28.3351 387.415 25.1842C385.695 24.9259 384.171 24.4878 382.652 24.5102C368.403 24.7012 354.159 25.0326 339.915 25.2067C330.918 25.3115 321.92 25.3115 312.923 25.2067C310.111 25.173 308.711 25.802 308.733 28.9978C308.795 36.9844 308.222 44.9823 308.497 52.9577C308.925 65.1904 310.583 77.3613 309.999 89.6613C309.774 94.3792 310.741 99.1532 310.6 103.882C310.375 111.38 309.678 118.861 309.161 126.348C309.11 127.101 308.717 127.881 308.829 128.595C310.263 137.491 308.458 146.326 308.486 155.189C308.486 159.182 309.172 163.175 309.549 167.169" stroke="black" stroke-width="2" stroke-linecap="round" stroke-linejoin="round"/>
<path d="M8.88488 384.695C33.9819 382.448 59.1521 387.402 84.041 384.695C86.9989 336.882 84.3728 289.821 85.1095 242.357C80.1272 242.104 75.6172 241.649 71.1186 241.694C60.9965 241.795 50.8745 242.216 40.7524 242.373C33.3802 242.491 26.0024 242.267 18.6358 242.446C14.3789 242.547 10.1333 243.143 5.88763 243.519" stroke="black" stroke-width="2" stroke-linecap="round" stroke-linejoin="round"/>
<path d="M304.297 89.2682C304.55 93.3907 305 97.5076 304.994 101.624C304.994 106.118 304.387 110.611 304.33 115.104C304.218 124.09 304.392 133.077 304.269 142.063C304.162 149.679 303.245 157.323 303.706 164.9C304.314 175.498 308.537 182.232 320.818 182.215C333.684 182.215 346.562 183.221 359.428 183.125C367.183 183.069 374.965 182.002 382.664 180.929C389.94 179.89 392.64 176.593 392.786 168.651C392.988 158.789 393.517 148.926 393.472 139.069C393.376 116.604 393.061 94.1377 392.752 71.6718C392.645 64.0558 392.19 56.4455 392.055 48.8296C391.926 40.096 391.948 31.3567 392.055 22.6231C392.134 15.8833 389.626 9.98043 380.021 8.86275C373.582 8.11576 367.037 8.14946 360.536 8.04836C352.416 7.9248 344.294 7.9248 336.17 8.04836C329.669 8.14946 323.107 8.04836 316.691 8.88521C308.458 9.98043 305.68 12.2944 305.14 22.9994C304.707 31.7162 305.056 40.4666 305.056 49.2059C305.056 59.6918 305.084 70.1722 305.022 80.6581C305.022 82.0342 304.555 83.4046 304.302 84.775" stroke="black" stroke-width="2" stroke-linecap="round" stroke-linejoin="round"/>
<path d="M368.78 292.585C359.906 292.214 351.038 291.613 342.164 291.529C334.292 291.456 326.419 291.916 318.546 292.231C313.795 292.422 309.054 292.792 303.926 293.096V338.454H368.954C369.179 336.028 369.516 334.152 369.516 332.276C369.561 320.669 369.561 309.062 369.516 297.454C369.516 295.955 369.05 294.461 368.802 292.961" stroke="black" stroke-width="2" stroke-linecap="round" stroke-linejoin="round"/>
<path d="M299.05 44.3364C297.802 44.4656 296.531 44.7914 295.305 44.6791C284.677 43.7355 274.066 42.5841 263.432 41.7529C251.825 40.8486 240.19 40.2364 228.567 39.4613C223.562 39.13 218.574 38.5065 213.569 38.3886C198.077 38.0291 182.579 37.6304 167.081 37.6697C154.71 37.6978 142.338 38.1246 129.967 38.793C120.7 39.2985 111.466 40.4779 102.227 41.3709C102.075 41.3709 101.974 41.8427 101.845 42.0899" stroke="black" stroke-width="2" stroke-linecap="round" stroke-linejoin="round"/>
<path d="M381.151 300.077C380.527 301.324 379.368 302.571 379.363 303.818C379.323 312.68 379.577 321.543 379.627 330.406C379.627 334.146 379.217 337.898 379.312 341.639C379.582 351.878 380.212 362.111 380.324 372.344C380.381 377.708 379.56 383.077 379.318 388.447C379.205 390.935 379.689 393.445 379.616 395.933C379.475 401.056 379.138 406.167 378.896 411.047C375.831 416.36 370.675 417.843 365.4 418.304C356.937 419.045 348.417 419.427 339.921 419.427C332.92 419.427 325.924 418.669 318.923 418.416C314.306 418.248 309.667 418.557 305.056 418.337C299.461 418.073 294.568 415.821 292.431 410.474C290.294 405.128 289.721 399.494 289.98 393.67C290.396 384.448 290.249 375.197 290.452 365.964C290.598 359.471 290.924 352.984 291.189 346.492C291.29 343.998 291.532 341.504 291.543 339.005C291.582 328.019 291.543 317.039 291.543 306.053V262.244" stroke="black" stroke-width="2" stroke-linecap="round" stroke-linejoin="round"/>
<path d="M379.65 298.954C379.402 297.578 378.947 296.207 378.935 294.831C378.874 285.345 378.935 275.864 378.885 266.378C378.885 262.379 379.295 258.234 378.384 254.432C376.855 248.068 373.751 245.255 363.904 244.744C352.174 244.137 340.429 243.888 328.668 243.997C320.166 244.058 311.641 244.631 303.183 245.491C295.215 246.294 292.302 249.933 292.302 257.762" stroke="black" stroke-width="2" stroke-linecap="round" stroke-linejoin="round"/>
<path d="M295.676 263.755C295.676 270.742 295.541 277.735 295.71 284.722C295.963 295.208 296.48 305.688 296.784 316.174C297.003 323.913 297.296 331.658 297.11 339.387C296.913 347.385 296.12 355.366 295.71 363.358C295.597 365.604 296.086 367.851 296.019 370.098C295.873 375.096 295.294 380.089 295.367 385.077C295.462 391.07 296.053 397.057 296.424 403.049" stroke="black" stroke-width="2" stroke-linecap="round" stroke-linejoin="round"/>
<path d="M6.2588 246.53C6.2588 255.645 6.11822 264.755 6.30379 273.865C6.46124 281.481 7.10793 289.091 7.36098 296.707C7.60841 304.188 7.88395 311.686 7.69276 319.173C7.49032 327.171 6.67493 335.146 6.30379 343.144C6.1632 346.25 6.6693 349.384 6.60182 352.501C6.45562 359.365 5.97201 366.228 5.95514 373.097C5.95514 376.59 6.63556 380.084 7.01233 383.577" stroke="black" stroke-width="2" stroke-linecap="round" stroke-linejoin="round"/>
<path d="M376.652 81.7815C376.939 78.1701 377.215 74.5587 377.552 70.4811C358.658 68.3806 340.286 72.0931 321.543 70.8799V83.2361C322.653 83.474 323.783 83.6038 324.917 83.6237C335.664 83.062 346.404 82.3038 357.162 81.832C361.396 81.6467 365.653 82.0904 369.904 82.1297C372.03 82.1297 374.156 81.905 376.276 81.7815" stroke="black" stroke-width="2" stroke-linecap="round" stroke-linejoin="round"/>
<path d="M376.652 109.488C370.467 106.573 363.91 108.432 357.533 108.061C354.682 107.898 351.797 108.589 348.918 108.724C339.673 109.151 330.423 109.504 320.801 109.898V121.518C325.086 122.95 329.9 122.147 334.668 121.833C347.405 121.001 360.097 118.895 372.907 120.709C373.762 120.827 374.662 120.597 375.848 120.507C376.247 116.896 376.641 113.385 377.029 109.875" stroke="black" stroke-width="2" stroke-linecap="round" stroke-linejoin="round"/>
<path d="M321.543 142.063C330.665 141.563 339.786 140.884 348.912 140.62C357.527 140.373 366.159 140.569 375.342 140.569V128.904C372.469 128.056 326.61 128.685 320.481 129.836C320.222 133.919 319.918 138.177 319.671 142.439" stroke="black" stroke-width="2" stroke-linecap="round" stroke-linejoin="round"/>
<path d="M76.7419 290.714C76.8657 285.474 77.0512 280.228 77.0906 274.988C77.0906 272.433 76.86 269.872 76.7138 266.951C75.0268 266.766 73.2498 266.389 71.4897 266.389C60.9966 266.575 50.4977 267.063 39.9989 267.041C32.3793 267.041 24.754 266.356 17.1344 265.991C16.1222 265.946 15.1043 265.991 14.0584 265.991C11.8934 286.435 12.8662 306.547 12.5907 327.064C34.5218 328.249 55.6206 326.997 76.6632 326.795C78.3221 323.61 78.3221 302.779 76.7419 291.079" stroke="black" stroke-width="2" stroke-linecap="round" stroke-linejoin="round"/>
<path d="M300.175 84.7751C299.297 85.3986 298.302 86.6847 297.571 86.5443C292.038 85.4941 289.35 88.7348 287.449 93.0258C283.704 101.523 280.538 110.156 279.857 119.592C279.177 129.027 278.244 138.62 276.81 148.056C275.927 153.835 274.965 159.716 271.749 164.956C268.307 170.539 263.848 173.982 257.066 173.942C256.194 173.942 255.317 174.408 254.446 174.656" stroke="black" stroke-width="2" stroke-linecap="round" stroke-linejoin="round"/>
<path d="M235.129 209.461C235.484 201.351 235.838 193.24 236.187 185.349C234.685 182.451 232.638 181.502 229.68 182.462C228.893 182.721 227.948 182.496 227.071 182.507C212.574 182.625 198.071 182.507 183.591 183.019C178.845 183.187 173.75 182.799 169.336 185.501" stroke="black" stroke-width="2" stroke-linecap="round" stroke-linejoin="round"/>
<path d="M164.837 187.371C164.337 191.741 163.533 196.099 163.415 200.48C163.246 206.709 163.589 212.96 163.718 219.2C163.718 219.705 163.797 220.211 163.904 221.519C166.125 221.356 168.105 221.115 170.09 221.087C174.836 221.031 179.588 221.16 184.334 221.048C191.082 220.885 197.83 220.548 204.578 220.346C205.834 220.381 207.087 220.498 208.328 220.694" stroke="black" stroke-width="2" stroke-linecap="round" stroke-linejoin="round"/>
<path d="M216.949 220.508L225.57 219.947" stroke="black" stroke-width="2" stroke-linecap="round" stroke-linejoin="round"/>
<path d="M225.946 219.947C227.07 220.023 228.198 220.012 229.32 219.913C230.839 219.672 232.323 219.2 233.819 218.823" stroke="black" stroke-width="2" stroke-linecap="round" stroke-linejoin="round"/>
<path d="M235.129 212.46C235.191 211.584 235.259 210.713 235.321 209.837" stroke="black" stroke-width="2" stroke-linecap="round" stroke-linejoin="round"/>
<path d="M76.742 141.316C74.4589 139.367 71.7878 138.997 68.8693 139.03C60.243 139.137 51.6224 139.07 43.0018 139.07C37.564 139.07 37.564 139.07 33.6277 143.563C34.0101 146.618 35.7421 148.281 38.8743 148.415C42.9962 148.595 47.1237 148.657 51.2457 148.809C57.4988 149.039 63.7408 149.37 69.9939 149.533C73.0868 149.617 75.9322 148.73 77.4111 145.77C77.9116 144.77 77.4899 143.316 77.4899 142.063" stroke="black" stroke-width="2" stroke-linecap="round" stroke-linejoin="round"/>
<path d="M290.429 352.872C282.18 353.619 273.925 354.321 265.687 355.118C260.305 355.652 254.952 356.534 249.559 356.933C239.324 357.691 229.062 358.056 218.827 358.881C207.271 359.786 195.805 358.881 184.334 357.696C182.32 357.489 180.335 356.972 178.333 356.573" stroke="black" stroke-width="2" stroke-linecap="round" stroke-linejoin="round"/>
<path d="M2.88479 239.79C2.12564 230.45 6.2588 226.872 14.5195 226.069C22.9545 225.238 31.502 225.266 39.9989 225.232C51.3694 225.187 62.7454 225.423 74.1158 225.569C82.2416 225.676 87.3982 229.141 89.0234 236.066C89.67 238.818 89.4564 241.789 89.4676 244.659C89.5126 256.139 89.3776 267.625 89.5576 279.105C89.6082 282.475 90.4854 285.845 90.9859 289.215" stroke="black" stroke-width="2" stroke-linecap="round" stroke-linejoin="round"/>
<path d="M117.978 298.577C125.592 304.576 130.231 312.871 134.758 321.094C140.1 330.794 146.174 339.847 155.154 346.419C161.563 351.11 168.994 354.218 176.838 355.489" stroke="black" stroke-width="2" stroke-linecap="round" stroke-linejoin="round"/>
<path d="M287.055 293.337C283.732 291.922 282.647 288.844 281.432 285.851C277.811 276.943 275.848 267.664 274.622 258.15C273.374 248.518 269.055 243.643 258.944 243.89C257.813 243.847 256.686 243.729 255.57 243.536" stroke="black" stroke-width="2" stroke-linecap="round" stroke-linejoin="round"/>
<path d="M86.1104 114.357C69.9939 114.733 53.8717 115.149 37.7496 115.452C33.8807 115.525 30.0062 115.233 26.1317 115.104" stroke="black" stroke-width="2" stroke-linecap="round" stroke-linejoin="round"/>
<path d="M360.53 279.858C357.78 279.728 355.031 279.465 352.286 279.504C337.789 279.706 323.292 279.981 308.795 280.228" stroke="black" stroke-width="2" stroke-linecap="round" stroke-linejoin="round"/>
<path d="M373.278 50.7056C369.528 51.0763 365.782 51.7615 362.032 51.7727C350.161 51.8008 338.29 51.5761 326.419 51.4694C326.027 51.5265 325.647 51.6479 325.294 51.8289" stroke="black" stroke-width="2" stroke-linecap="round" stroke-linejoin="round"/>
<path d="M333.167 367.475C326.289 367.598 319.418 367.739 312.546 367.84C308.778 367.896 308.458 368.16 308.43 371.968C308.396 376.461 308.385 380.954 308.43 385.447C308.536 386.891 308.724 388.327 308.992 389.75H346.286V368.879L345.161 367.475H333.915" stroke="black" stroke-width="2" stroke-linecap="round" stroke-linejoin="round"/>
<path d="M86.1104 89.6445C71.2423 89.8917 56.3723 90.1425 41.5004 90.3971C35.877 90.4982 30.2537 90.6443 24.6303 90.7678" stroke="black" stroke-width="2" stroke-linecap="round" stroke-linejoin="round"/>
<path d="M63.9938 346.879C63.1165 346.632 62.2393 346.143 61.3677 346.166C48.1228 346.492 34.8779 346.866 21.633 347.289C21.38 347.289 21.1326 347.525 20.8795 347.649" stroke="black" stroke-width="2" stroke-linecap="round" stroke-linejoin="round"/>
<path d="M122.477 116.227C123.354 123.343 124.04 130.488 125.159 137.57C126.132 143.748 127.6 149.808 128.848 155.925" stroke="black" stroke-width="2" stroke-linecap="round" stroke-linejoin="round"/>
<path d="M65.1185 54.4461C66.7774 51.0481 64.6517 48.3747 62.7792 46.2909C56.9421 39.7814 42.8725 40.1128 38.5987 49.2564C37.4425 51.8111 37.0519 54.6455 37.4741 57.4172C38.4582 62.9494 44.8519 68.5771 50.076 69.0882C57.0602 69.7678 62.5036 65.196 64.9892 59.2818C65.3547 58.4113 64.573 57.069 64.3256 55.9457" stroke="black" stroke-width="2" stroke-linecap="round" stroke-linejoin="round"/>
<path d="M362.78 76.165L328.292 77.2883" stroke="black" stroke-width="2" stroke-linecap="round" stroke-linejoin="round"/>
<path d="M362.78 95.261L329.793 96.008C329.292 96.008 328.792 96.008 328.292 96.008" stroke="black" stroke-width="2" stroke-linecap="round" stroke-linejoin="round"/>
<path d="M346.663 333.023C346.91 332.523 347.4 332.012 347.377 331.529C347.057 325.284 346.669 319.044 346.252 312.394C334.01 312.759 321.718 311.714 309.532 313.22V334.708H346.646L346.82 333.866L329.388 323.666" stroke="black" stroke-width="2" stroke-linecap="round" stroke-linejoin="round"/>
<path d="M362.032 114.733C351.662 114.981 341.291 115.233 330.918 115.492C330.036 115.561 329.159 115.683 328.292 115.857" stroke="black" stroke-width="2" stroke-linecap="round" stroke-linejoin="round"/>
<path d="M360.53 134.576C352.157 134.953 343.789 135.357 335.416 135.7C332.543 135.812 329.664 135.7 326.79 135.7" stroke="black" stroke-width="2" stroke-linecap="round" stroke-linejoin="round"/>
<path d="M337.666 155.919C338.352 158.053 340.14 157.784 341.787 157.789C346.91 157.789 352.033 157.789 357.156 157.789C358.534 157.789 359.912 157.907 361.964 158.003C362.144 155.458 362.341 152.712 362.571 149.544H338.79" stroke="black" stroke-width="2" stroke-linecap="round" stroke-linejoin="round"/>
<path d="M361.284 58.9393L332.79 58.1923" stroke="black" stroke-width="2" stroke-linecap="round" stroke-linejoin="round"/>
<path d="M46.3758 353.619C39.3747 353.495 32.3793 353.349 25.3782 353.265C24.1242 353.313 22.8739 353.431 21.6331 353.619" stroke="black" stroke-width="2" stroke-linecap="round" stroke-linejoin="round"/>
<path d="M60.243 301.947C57.9936 297.078 55.8343 292.169 53.4612 287.344C52.0723 284.536 48.6982 283.84 44.1265 287.344" stroke="black" stroke-width="2" stroke-linecap="round" stroke-linejoin="round"/>
<path d="M347.788 283.975C344.785 283.851 341.787 283.609 338.79 283.626C333.791 283.626 328.792 283.851 323.793 283.975" stroke="black" stroke-width="2" stroke-linecap="round" stroke-linejoin="round"/>
<path d="M212.074 113.981C207.704 114.11 203.329 114.273 198.954 114.346C195.333 114.408 191.706 114.346 188.084 114.346" stroke="black" stroke-width="2" stroke-linecap="round" stroke-linejoin="round"/>
<path d="M117.23 297.831C111.112 292.461 103.458 291.478 95.8613 290.338" stroke="black" stroke-width="2" stroke-linecap="round" stroke-linejoin="round"/>
<path d="M31.3783 298.577C27.9537 294.646 26.008 289.428 21.5712 286.277L13.3836 291.461" stroke="black" stroke-width="2" stroke-linecap="round" stroke-linejoin="round"/>
<path d="M345.538 298.577H325.294" stroke="black" stroke-width="2" stroke-linecap="round" stroke-linejoin="round"/>
<path d="M344.785 251.399H325.294" stroke="black" stroke-width="2" stroke-linecap="round" stroke-linejoin="round"/>
<path d="M344.785 353.243C339.787 353.37 334.79 353.494 329.793 353.613C328.291 353.647 326.79 353.613 325.294 353.613" stroke="black" stroke-width="2" stroke-linecap="round" stroke-linejoin="round"/>
<path d="M345.161 387.694C339.786 384.948 334.427 382.173 329.028 379.483C328.128 379.033 326.717 378.416 326.093 378.792C321.127 381.757 316.297 384.97 311.421 388.065" stroke="black" stroke-width="2" stroke-linecap="round" stroke-linejoin="round"/>
<path d="M35.877 232.303L54.6197 232.679" stroke="black" stroke-width="2" stroke-linecap="round" stroke-linejoin="round"/>
<path d="M49.373 319.92L38.8124 309.395C35.1066 311.136 32.115 312.529 29.129 313.927" stroke="black" stroke-width="2" stroke-linecap="round" stroke-linejoin="round"/>
<path d="M62.1212 7.64404L44.1265 8.02034" stroke="black" stroke-width="2" stroke-linecap="round" stroke-linejoin="round"/>
<path d="M21.6331 371.592C25.0071 371.715 28.3811 371.923 31.7551 371.94C34.3756 371.94 37.0017 371.715 39.6278 371.592" stroke="black" stroke-width="2" stroke-linecap="round" stroke-linejoin="round"/>
<path d="M38.8743 362.605C34.5049 362.482 30.1299 362.319 25.755 362.251C24.3759 362.3 23.0001 362.418 21.6331 362.605" stroke="black" stroke-width="2" stroke-linecap="round" stroke-linejoin="round"/>
<path d="M71.8665 362.605H54.6196" stroke="black" stroke-width="2" stroke-linecap="round" stroke-linejoin="round"/>
<path d="M56.869 128.213H38.1263" stroke="black" stroke-width="2" stroke-linecap="round" stroke-linejoin="round"/>
<path d="M37.3784 376.832H20.8795" stroke="black" stroke-width="2" stroke-linecap="round" stroke-linejoin="round"/>
<path d="M37.3784 366.722H20.8795" stroke="black" stroke-width="2" stroke-linecap="round" stroke-linejoin="round"/>
<path d="M311.798 314.68L326.897 323.728C325.26 324.818 324.192 325.626 323.034 326.272C320.059 327.957 316.977 329.417 314.081 331.215C313.097 331.827 312.546 333.152 311.798 334.147" stroke="black" stroke-width="2" stroke-linecap="round" stroke-linejoin="round"/>
<path d="M343.289 312.804C342.412 314.056 341.81 315.82 340.612 316.455C336.727 318.505 332.447 319.796 329.366 323.228C328.854 323.79 327.431 323.537 326.436 323.666" stroke="black" stroke-width="2" stroke-linecap="round" stroke-linejoin="round"/>
<path d="M165.962 312.804L170.905 315.051L171.726 314.163C171.259 312.534 170.787 310.906 170.32 309.277L169.111 308.917L165.962 312.45" stroke="black" stroke-width="2" stroke-linecap="round" stroke-linejoin="round"/>
<path d="M342.535 367.845C342.85 370.654 340.348 370.935 338.768 371.934C335.461 374.035 332.02 375.961 328.646 377.955" stroke="black" stroke-width="2" stroke-linecap="round" stroke-linejoin="round"/>
<path d="M338.79 14.7601L356.785 15.1308" stroke="black" stroke-width="2" stroke-linecap="round" stroke-linejoin="round"/>
<path d="M54.6196 366.351C57.9936 366.475 61.3677 366.615 64.7417 366.717C66.3668 366.761 67.992 366.717 69.6171 366.717" stroke="black" stroke-width="2" stroke-linecap="round" stroke-linejoin="round"/>
<path d="M365.029 367.845H350.037" stroke="black" stroke-width="2" stroke-linecap="round" stroke-linejoin="round"/>
<path d="M112.355 100.501C117.376 104.034 120.711 108.718 122.1 114.733" stroke="black" stroke-width="2" stroke-linecap="round" stroke-linejoin="round"/>
<path d="M70.3651 316.926L63.617 308.968L55.7443 317.673" stroke="black" stroke-width="2" stroke-linecap="round" stroke-linejoin="round"/>
<path d="M329.039 410.16C330.012 412.244 331.632 412.407 333.538 411.654" stroke="black" stroke-width="2" stroke-linecap="round" stroke-linejoin="round"/>
<path d="M70.3651 370.468L56.1211 370.845" stroke="black" stroke-width="2" stroke-linecap="round" stroke-linejoin="round"/>
<path d="M365.029 312.804H350.785" stroke="black" stroke-width="2" stroke-linecap="round" stroke-linejoin="round"/>
<path d="M211.326 235.673C208.941 234.258 206.462 233.842 203.83 234.926" stroke="black" stroke-width="2" stroke-linecap="round" stroke-linejoin="round"/>
<path d="M186.96 238.667C186.819 239.902 186.684 241.138 186.487 242.896C189.558 242.609 191.796 242.098 192.954 239.419" stroke="black" stroke-width="2" stroke-linecap="round" stroke-linejoin="round"/>
<path d="M345.161 175.577L347.034 175.015" stroke="black" stroke-width="2" stroke-linecap="round" stroke-linejoin="round"/>
<path d="M364.281 374.961L350.785 375.338" stroke="black" stroke-width="2" stroke-linecap="round" stroke-linejoin="round"/>
<path d="M365.029 319.92L352.286 320.296" stroke="black" stroke-width="2" stroke-linecap="round" stroke-linejoin="round"/>
<path d="M364.281 328.159H351.533" stroke="black" stroke-width="2" stroke-linecap="round" stroke-linejoin="round"/>
<path d="M28.0043 289.215C30.3099 285.255 32.3624 281.088 36.8555 277.678L44.1265 290.714" stroke="black" stroke-width="2" stroke-linecap="round" stroke-linejoin="round"/>
<path d="M68.8693 376.085H56.869" stroke="black" stroke-width="2" stroke-linecap="round" stroke-linejoin="round"/>
<path d="M194.456 315.427L191.458 315.803V312.057" stroke="black" stroke-width="2" stroke-linecap="round" stroke-linejoin="round"/>
<path d="M305.798 410.531L310.702 412.165L312.034 408.795C309.352 407.773 308.182 408.851 307.3 410.547" stroke="black" stroke-width="2" stroke-linecap="round" stroke-linejoin="round"/>
<path d="M129.601 158.166L135.596 169.398" stroke="black" stroke-width="2" stroke-linecap="round" stroke-linejoin="round"/>
<path d="M354.536 384.695L351.724 385.818V389.952H360.749C362.183 387.492 360.586 385.959 358.281 384.706" stroke="black" stroke-width="2" stroke-linecap="round" stroke-linejoin="round"/>
<path d="M26.8796 166.776L29.6913 168.399V163.877C26.3904 164.838 25.322 166.719 25.3782 169.398" stroke="black" stroke-width="2" stroke-linecap="round" stroke-linejoin="round"/>
<path d="M28.7522 129.336L29.7813 126.343L25.3782 125.219" stroke="black" stroke-width="2" stroke-linecap="round" stroke-linejoin="round"/>
<path d="M207.204 201.974L210.921 199.166C210.274 198.087 209.796 197.318 209.234 196.324L204.994 198.632L206.461 201.586V208.326" stroke="black" stroke-width="2" stroke-linecap="round" stroke-linejoin="round"/>
<path d="M320.419 174.268L324.271 175.105C324.389 173.953 324.501 172.858 324.614 171.735L323.343 171.263L321.167 173.892" stroke="black" stroke-width="2" stroke-linecap="round" stroke-linejoin="round"/>
<path d="M360.53 371.968L350.785 371.592" stroke="black" stroke-width="2" stroke-linecap="round" stroke-linejoin="round"/>
<path d="M316.668 373.462L325.665 378.708" stroke="black" stroke-width="2" stroke-linecap="round" stroke-linejoin="round"/>
<path d="M21.2563 317.673L17.6405 313.989L13.3836 315.803" stroke="black" stroke-width="2" stroke-linecap="round" stroke-linejoin="round"/>
<path d="M243.564 135.7L234.567 136.076" stroke="black" stroke-width="2" stroke-linecap="round" stroke-linejoin="round"/>
<path d="M334.292 305.317L325.294 305.693" stroke="black" stroke-width="2" stroke-linecap="round" stroke-linejoin="round"/>
<path d="M188.084 197.105C189.771 199.756 192.459 202.013 191.458 205.72" stroke="black" stroke-width="2" stroke-linecap="round" stroke-linejoin="round"/>
<path d="M197.83 240.166C200.579 242.542 203.329 241.952 206.079 240.166" stroke="black" stroke-width="2" stroke-linecap="round" stroke-linejoin="round"/>
<path d="M333.538 360.735H325.294" stroke="black" stroke-width="2" stroke-linecap="round" stroke-linejoin="round"/>
<path d="M187.331 196.358C186.337 200.851 185.338 205.344 184.334 209.837" stroke="black" stroke-width="2" stroke-linecap="round" stroke-linejoin="round"/>
<path d="M43.3729 53.3228C43.1199 55.1987 42.8668 57.0689 42.5182 59.6638L47.1237 59.3155" stroke="black" stroke-width="2" stroke-linecap="round" stroke-linejoin="round"/>
<path d="M351.533 316.55H361.284" stroke="black" stroke-width="2" stroke-linecap="round" stroke-linejoin="round"/>
<path d="M383.777 28.9866L376.276 29.3629" stroke="black" stroke-width="2" stroke-linecap="round" stroke-linejoin="round"/>
<path d="M371.029 268.995H363.533" stroke="black" stroke-width="2" stroke-linecap="round" stroke-linejoin="round"/>
<path d="M57.2458 319.92C53.1295 315.045 52.5728 314.865 47.8716 317.297" stroke="black" stroke-width="2" stroke-linecap="round" stroke-linejoin="round"/>
<path d="M234.567 140.193L242.069 140.569" stroke="black" stroke-width="2" stroke-linecap="round" stroke-linejoin="round"/>
<path d="M68.1157 296.331C67.3678 295.455 66.6761 294.522 65.8663 293.725C64.7079 292.601 63.4539 291.591 61.885 290.226L58.0049 294.084" stroke="black" stroke-width="2" stroke-linecap="round" stroke-linejoin="round"/>
<path d="M80.8639 246.159L74.1158 246.906" stroke="black" stroke-width="2" stroke-linecap="round" stroke-linejoin="round"/>
<path d="M234.567 209.461C232.818 210.084 230.664 210.27 229.405 211.427C226.542 214.038 222.094 215.083 221.071 219.57" stroke="black" stroke-width="2" stroke-linecap="round" stroke-linejoin="round"/>
<path d="M81.6118 21.8706H88.3598" stroke="black" stroke-width="2" stroke-linecap="round" stroke-linejoin="round"/>
<path d="M196.328 198.604C196.459 202.098 196.585 205.593 196.705 209.09" stroke="black" stroke-width="2" stroke-linecap="round" stroke-linejoin="round"/>
<path d="M242.069 131.953H235.321" stroke="black" stroke-width="2" stroke-linecap="round" stroke-linejoin="round"/>
<path d="M76.7419 313.18L69.9939 314.304" stroke="black" stroke-width="2" stroke-linecap="round" stroke-linejoin="round"/>
<path d="M55.7443 51.8289C54.6196 53.6991 53.6749 55.7155 52.3084 57.3948C51.3862 58.5181 49.5924 60.1412 48.6814 59.8717C46.5895 59.2595 47.6523 57.1477 47.8716 55.5694" stroke="black" stroke-width="2" stroke-linecap="round" stroke-linejoin="round"/>
<path d="M301.676 45.4597L296.053 50.3292" stroke="black" stroke-width="2" stroke-linecap="round" stroke-linejoin="round"/>
<path d="M88.3598 28.2396L82.3653 28.6103" stroke="black" stroke-width="2" stroke-linecap="round" stroke-linejoin="round"/>
<path d="M377.029 36.1027L383.024 36.4734" stroke="black" stroke-width="2" stroke-linecap="round" stroke-linejoin="round"/>
<path d="M357.533 324.037H351.533" stroke="black" stroke-width="2" stroke-linecap="round" stroke-linejoin="round"/>
<path d="M44.1265 125.214H38.1263" stroke="black" stroke-width="2" stroke-linecap="round" stroke-linejoin="round"/>
<path d="M57.2458 56.322C56.9983 57.069 56.9758 58.1249 56.4529 58.5124C54.7659 59.7762 54.2541 58.0463 53.495 57.069" stroke="black" stroke-width="2" stroke-linecap="round" stroke-linejoin="round"/>
<path d="M374.78 73.9185C373.903 74.6654 373.093 75.5753 372.126 76.1145C371.395 76.5076 370.405 76.4122 369.528 76.5413" stroke="black" stroke-width="2" stroke-linecap="round" stroke-linejoin="round"/>
<path d="M351.91 331.529C353.389 330.299 359.951 329.283 360.806 330.473C361.66 331.664 361.554 333.282 361.998 335.27L351.533 334.523" stroke="black" stroke-width="2" stroke-linecap="round" stroke-linejoin="round"/>
<path d="M24.6303 83.2811C24.6809 85.1233 23.9274 87.3755 26.8797 87.7743" stroke="black" stroke-width="2" stroke-linecap="round" stroke-linejoin="round"/>
<path d="M76.3651 290.714L71.8046 287.524L65.8663 292.961" stroke="black" stroke-width="2" stroke-linecap="round" stroke-linejoin="round"/>
<path d="M82.3653 25.2405H87.9886" stroke="black" stroke-width="2" stroke-linecap="round" stroke-linejoin="round"/>
<path d="M363.533 382.825L358.281 383.201" stroke="black" stroke-width="2" stroke-linecap="round" stroke-linejoin="round"/>
<path d="M186.206 205.72L192.274 206.366C192.516 207.327 192.735 208.208 192.954 209.09" stroke="black" stroke-width="2" stroke-linecap="round" stroke-linejoin="round"/>
<path d="M382.276 301.2C383.524 302.571 384.774 303.943 386.026 305.317" stroke="black" stroke-width="2" stroke-linecap="round" stroke-linejoin="round"/>
<path d="M356.408 383.948L351.533 383.201" stroke="black" stroke-width="2" stroke-linecap="round" stroke-linejoin="round"/>
<path d="M299.427 41.7192L303.925 44.7128" stroke="black" stroke-width="2" stroke-linecap="round" stroke-linejoin="round"/>
<path d="M197.082 198.228C198.488 196.975 199.893 195.689 202.03 198.447L197.453 201.974" stroke="black" stroke-width="2" stroke-linecap="round" stroke-linejoin="round"/>
<path d="M59.8719 54.8224L61.3621 57.3498L65.6696 55.1032L61.3677 52.5758" stroke="black" stroke-width="2" stroke-linecap="round" stroke-linejoin="round"/>
<path d="M78.9913 253.269L74.1158 253.646" stroke="black" stroke-width="2" stroke-linecap="round" stroke-linejoin="round"/>
<path d="M300.551 84.0281L304.488 84.5897V88.3134L299.05 92.2674" stroke="black" stroke-width="2" stroke-linecap="round" stroke-linejoin="round"/>
<path d="M374.026 93.0144C372.98 94.2051 371.929 95.3902 370.59 96.9066L369.156 94.514" stroke="black" stroke-width="2" stroke-linecap="round" stroke-linejoin="round"/>
<path d="M315.92 372.715L311.798 370.845" stroke="black" stroke-width="2" stroke-linecap="round" stroke-linejoin="round"/>
<path d="M371.029 266.002H362.78" stroke="black" stroke-width="2" stroke-linecap="round" stroke-linejoin="round"/>
<path d="M233.819 214.707C229.753 213.465 229.056 216.436 228.196 219.2" stroke="black" stroke-width="2" stroke-linecap="round" stroke-linejoin="round"/>
<path d="M42.625 90.0209V88.3921L38.5031 86.2747" stroke="black" stroke-width="2" stroke-linecap="round" stroke-linejoin="round"/>
<path d="M22.0042 313.557L25.0071 309.541L30.2537 316.55" stroke="black" stroke-width="2" stroke-linecap="round" stroke-linejoin="round"/>
<path d="M99.2354 98.2546C102.559 97.2998 102.193 101.13 104.105 102.001" stroke="black" stroke-width="2" stroke-linecap="round" stroke-linejoin="round"/>
<path d="M54.2485 142.439L56.1211 143.939C56.3685 143.186 56.6216 142.439 56.869 141.692" stroke="black" stroke-width="2" stroke-linecap="round" stroke-linejoin="round"/>
<path d="M29.129 87.0217L29.9781 85.3368L34.7523 86.2747C34.7523 86.1512 34.7973 85.9995 34.7523 85.9041C34.6483 85.7625 34.5253 85.6359 34.3868 85.5277" stroke="black" stroke-width="2" stroke-linecap="round" stroke-linejoin="round"/>
<path d="M372.902 113.234C371.423 113.593 370.652 118.103 368.403 113.981" stroke="black" stroke-width="2" stroke-linecap="round" stroke-linejoin="round"/>
<path d="M136.349 170.898L139.347 173.892" stroke="black" stroke-width="2" stroke-linecap="round" stroke-linejoin="round"/>
<path d="M230.822 312.433L233.819 312.619" stroke="black" stroke-width="2" stroke-linecap="round" stroke-linejoin="round"/>
<path d="M49.373 110.24L47.686 110.689L47.8491 111.549H51.673L51.2288 109.488" stroke="black" stroke-width="2" stroke-linecap="round" stroke-linejoin="round"/>
<path d="M46.3758 142.439V145.433" stroke="black" stroke-width="2" stroke-linecap="round" stroke-linejoin="round"/>
<path d="M357.156 383.948C356.909 385.818 356.656 387.694 356.408 389.564" stroke="black" stroke-width="2" stroke-linecap="round" stroke-linejoin="round"/>
<path d="M103.734 97.8839L106.355 98.2546" stroke="black" stroke-width="2" stroke-linecap="round" stroke-linejoin="round"/>
<path d="M18.6302 336.022L16.4483 337.657L18.6302 339.392" stroke="black" stroke-width="2" stroke-linecap="round" stroke-linejoin="round"/>
<path d="M63.617 143.939L68.8692 144.343V142.439" stroke="black" stroke-width="2" stroke-linecap="round" stroke-linejoin="round"/>
<path d="M288.18 289.215C288.051 290.467 287.983 291.72 287.786 292.955C287.623 293.972 287.303 294.96 287.055 295.955" stroke="black" stroke-width="2" stroke-linecap="round" stroke-linejoin="round"/>
<path d="M373.278 173.892L375.151 174.268" stroke="black" stroke-width="2" stroke-linecap="round" stroke-linejoin="round"/>
<path d="M48.6252 55.1987C50.2053 53.3902 50.9589 55.3054 51.9992 55.9457" stroke="black" stroke-width="2" stroke-linecap="round" stroke-linejoin="round"/>
<path d="M359.782 350.625L359.034 351.372" stroke="black" stroke-width="2" stroke-linecap="round" stroke-linejoin="round"/>
<path d="M213.952 240.166L215.076 241.289" stroke="black" stroke-width="2" stroke-linecap="round" stroke-linejoin="round"/>
<path d="M343.66 346.132C336.788 346.632 329.922 347.312 323.039 347.576C316.55 347.823 310.038 347.626 303.549 347.626V393.496H368.594V347.851C360.721 345.834 352.348 346.166 344.037 346.132" stroke="black" stroke-width="2" stroke-linecap="round" stroke-linejoin="round"/>
<path d="M313.671 297.454C310.561 298.527 309.633 301.082 310.437 303.778C310.966 305.559 312.839 306.935 313.918 308.271C317.77 306.862 319.677 304.902 318.839 301.605C318.276 299.358 317.095 297.156 314.048 297.465" stroke="black" stroke-width="2" stroke-linecap="round" stroke-linejoin="round"/>
<path d="M312.169 352.872C308.964 356.124 308.615 358.679 311.045 361.106C312.552 362.611 314.419 363.352 316.257 362.173C318.316 360.825 319.345 358.775 318.153 356.247C317.658 355.186 317 354.197 316.241 352.877H312.546" stroke="black" stroke-width="2" stroke-linecap="round" stroke-linejoin="round"/>
<path d="M360.159 88.5212C357.78 88.7684 355.413 89.1615 353.034 89.2458C344.29 89.5603 335.54 89.7569 326.79 90.0321C325.165 90.0826 323.545 90.2904 321.543 90.4645V102.787C327.313 102.523 333.054 102.304 338.79 101.995C350.037 101.389 361.227 99.5127 372.53 101.214C376.219 101.776 376.939 100.906 377.029 97.1313C377.097 94.6432 377.299 92.1551 377.473 89.0829L360.519 88.5212" stroke="black" stroke-width="2" stroke-linecap="round" stroke-linejoin="round"/>
<path d="M65.8663 273.118C63.572 273.73 62.9591 275.365 64.05 277.201C65.4277 279.526 67.4521 279.897 69.8027 277.819V273.702L66.2431 273.14" stroke="black" stroke-width="2" stroke-linecap="round" stroke-linejoin="round"/>
</g>
<defs>
<clipPath id="clip0">
<rect width="394.04" height="420" fill="white"/>
</clipPath>
</defs>
</svg>
