<svg width="50" height="51" viewBox="0 0 50 51" fill="none" xmlns="http://www.w3.org/2000/svg">
<circle cx="25" cy="25.5665" r="25" fill="white"/>
<g clip-path="url(#clip0)">
<path d="M28.4884 21.033L24.5007 25.0207L20.5129 21.033C20.3313 20.8513 19.6907 20.7041 19.1974 21.1975C18.7041 21.6908 18.8513 22.3314 19.0329 22.513L23.0207 26.5008L19.033 30.4885C18.8513 30.6701 18.7041 31.3107 19.1974 31.804C19.6907 32.2973 20.3313 32.1501 20.5129 31.9684L24.5007 27.9807L28.4884 31.9684C28.67 32.1501 29.3106 32.2973 29.804 31.804C30.2973 31.3106 30.15 30.6701 29.9684 30.4884L25.9807 26.5007L29.9684 22.5129C30.15 22.3313 30.2973 21.6907 29.804 21.1974C29.3106 20.704 28.67 20.8514 28.4884 21.033Z" fill="#3497D2"/>
</g>
<defs>
<clipPath id="clip0">
<rect x="13.8934" y="26.5" width="15" height="15" transform="rotate(-45 13.8934 26.5)" fill="white"/>
</clipPath>
</defs>
</svg>
