<svg width="11" height="11" viewBox="0 0 11 11" fill="none" xmlns="http://www.w3.org/2000/svg">
<path d="M6.71155 4.28755C6.58124 4.15648 6.43677 4.04029 6.2808 3.94112C5.86768 3.67658 5.38742 3.53602 4.89687 3.53602C4.216 3.53475 3.5628 3.80527 3.0822 4.28755L0.750618 6.62096C0.270829 7.10168 0.00116256 7.75299 0.000732953 8.43216C-0.000169228 9.84944 1.14801 10.9991 2.56529 11C3.24511 11.0024 3.89771 10.7331 4.37814 10.2521L6.30279 8.32748C6.33776 8.29281 6.35729 8.24551 6.35701 8.19628C6.35643 8.09504 6.27388 8.01346 6.17264 8.01404H6.09933C5.69721 8.01546 5.29869 7.93823 4.92621 7.78675C4.85758 7.75851 4.77871 7.77445 4.72642 7.82707L3.3425 9.21282C2.91276 9.64256 2.21602 9.64256 1.78628 9.21282C1.35654 8.78308 1.35654 8.08634 1.78628 7.6566L4.12703 5.3177C4.55643 4.88884 5.25203 4.88884 5.68143 5.3177C5.97081 5.59005 6.4222 5.59005 6.71157 5.3177C6.83607 5.19309 6.91155 5.02782 6.9242 4.85211C6.93758 4.64213 6.86015 4.4365 6.71155 4.28755Z" fill="#3497D2"/>
<path d="M10.2474 0.751662C9.24519 -0.250554 7.62027 -0.250554 6.61806 0.751662L4.69523 2.67264C4.64243 2.7257 4.6272 2.8055 4.65674 2.87428C4.68593 2.94325 4.75415 2.98753 4.82903 2.98609H4.89684C5.29849 2.98536 5.69637 3.06318 6.06813 3.21522C6.13676 3.24347 6.21564 3.22753 6.26792 3.1749L7.64818 1.79647C8.07792 1.36674 8.77466 1.36674 9.2044 1.79647C9.63414 2.22621 9.63414 2.92296 9.2044 3.35269L7.48503 5.07021L7.47036 5.08671L6.86914 5.68428C6.43975 6.11313 5.74414 6.11313 5.31475 5.68428C5.02536 5.41192 4.57397 5.41192 4.28461 5.68428C4.15931 5.80983 4.08376 5.97654 4.07197 6.15352C4.05857 6.36349 4.13601 6.56912 4.28461 6.71809C4.49677 6.93115 4.745 7.10491 5.0178 7.23132C5.05629 7.24965 5.09479 7.26432 5.13328 7.28082C5.17177 7.29731 5.21209 7.31014 5.25059 7.32481C5.28908 7.33948 5.3294 7.3523 5.36789 7.3633L5.47605 7.39262C5.54936 7.41094 5.62269 7.42561 5.69783 7.43844C5.78835 7.45189 5.87951 7.46046 5.97096 7.46411H6.09926H6.11026L6.22024 7.45128C6.26056 7.44946 6.30272 7.44029 6.35039 7.44029H6.4127L6.53918 7.42196L6.59784 7.41097L6.70415 7.38897H6.72432C7.17457 7.27587 7.58571 7.04275 7.91393 6.71442L10.2473 4.38101C11.2496 3.37879 11.2496 1.75388 10.2474 0.751662Z" fill="#3497D2"/>
</svg>
