<svg width="43" height="44" viewBox="0 0 43 44" fill="none" xmlns="http://www.w3.org/2000/svg">
<path d="M40.1189 37.8146C38.7495 37.8146 37.6012 38.7747 37.3099 40.0574H27.5567C29.6077 39.1494 31.4502 37.784 32.9251 36.0502C35.1529 33.4314 36.4113 30.1157 36.4891 26.68H37.1457C38.0224 26.68 38.7359 25.9665 38.7359 25.0898V22.5075C38.7359 21.6308 38.0224 20.9174 37.1457 20.9174H34.5634C33.6867 20.9174 32.9733 21.6308 32.9733 22.5075V25.0898C32.9733 25.9665 33.6867 26.68 34.5634 26.68H35.2121C35.0582 33.047 30.5818 38.434 24.3814 39.7539V39.4044C24.3814 38.5277 23.6682 37.8143 22.7912 37.8143H20.2089C19.3322 37.8143 18.6191 38.5277 18.6191 39.4044V39.7539C12.4276 38.433 7.94293 33.0234 7.78834 26.68H8.43664C9.31369 26.68 10.0268 25.9665 10.0268 25.0898V22.5075C10.0268 21.6308 9.31369 20.9174 8.43664 20.9174H5.85439C4.97767 20.9174 4.26453 21.6308 4.26453 22.5075V25.0898C4.26453 25.9665 4.97767 26.68 5.85439 26.68H6.511C6.64266 32.5826 10.2054 37.7498 15.4311 40.0574H5.69048C5.39891 38.7751 4.25057 37.8146 2.88115 37.8146C1.29263 37.8146 0 39.1069 0 40.6957C0 42.2843 1.29263 43.5769 2.88115 43.5769C4.25057 43.5769 5.39891 42.6164 5.69048 41.3341H18.6187V41.9867C18.6187 42.8634 19.3322 43.5769 20.2089 43.5769H22.7912C23.6679 43.5769 24.3814 42.8634 24.3814 41.9867V41.3341H37.3096C37.6012 42.6164 38.7495 43.5769 40.1189 43.5769C41.7078 43.5769 43.0001 42.2843 43.0001 40.6957C43.0001 39.1069 41.7075 37.8146 40.1189 37.8146ZM34.2499 25.0898V22.5075C34.2499 22.335 34.3906 22.194 34.5634 22.194H37.1457C37.3186 22.194 37.4592 22.3347 37.4592 22.5075V25.0898C37.4592 25.2627 37.3186 25.4033 37.1457 25.4033H34.5634C34.3906 25.4033 34.2499 25.2627 34.2499 25.0898ZM5.5412 25.0898V22.5075C5.5412 22.335 5.68184 22.194 5.85439 22.194H8.43664C8.60953 22.194 8.75016 22.3347 8.75016 22.5075V25.0898C8.75016 25.2627 8.60953 25.4033 8.43664 25.4033H5.85439C5.68184 25.4033 5.5412 25.2627 5.5412 25.0898ZM2.88115 42.3002C1.99646 42.3002 1.27667 41.5804 1.27667 40.6957C1.27667 39.8107 1.99646 39.0909 2.88115 39.0909C3.76617 39.0909 4.48596 39.8107 4.48596 40.6957C4.48596 41.5804 3.76617 42.3002 2.88115 42.3002ZM23.1047 41.9867C23.1047 42.1596 22.9641 42.3002 22.7912 42.3002H20.2089C20.036 42.3002 19.8957 42.1596 19.8957 41.9867V39.4044C19.8957 39.2316 20.036 39.0909 20.2089 39.0909H22.7912C22.9641 39.0909 23.1047 39.2316 23.1047 39.4044V41.9867ZM40.1189 42.3002C39.2343 42.3002 38.5145 41.5804 38.5145 40.6957C38.5145 39.8107 39.2343 39.0909 40.1189 39.0909C41.0036 39.0909 41.7234 39.8107 41.7234 40.6957C41.7234 41.5804 41.0036 42.3002 40.1189 42.3002Z" fill="#3497D2"/>
<path d="M19.0862 35.8987C19.269 36.3369 19.6943 36.6198 20.1687 36.6198C20.4802 36.6198 20.7741 36.4988 20.9998 36.2747C21.2199 36.0529 21.341 35.759 21.341 35.4475V26.5664C21.341 26.1415 21.1488 25.7352 20.8133 25.4519C20.573 25.2488 20.4353 24.9522 20.4353 24.6381C20.4353 24.3428 20.5533 24.0685 20.7681 23.8651C20.9822 23.6619 21.2635 23.5579 21.5597 23.5748C22.1099 23.6044 22.5608 24.0775 22.5651 24.6298C22.5678 24.9466 22.4301 25.2458 22.1881 25.4509C21.852 25.7355 21.6595 26.1431 21.6595 26.5694V35.4269C21.6595 35.903 21.9331 36.3315 22.357 36.519C22.5099 36.5869 22.6715 36.6201 22.8327 36.6201C23.0601 36.6201 23.2862 36.5533 23.483 36.422C23.6742 36.294 23.8228 36.1141 23.9146 35.8973L27.1993 27.9893C27.3343 27.6635 27.18 27.2901 26.8546 27.1548C26.5291 27.0195 26.1554 27.1738 26.0204 27.4996L22.9361 34.9252V26.5694C22.9361 26.5192 22.9641 26.4666 23.0133 26.4251C23.5452 25.9742 23.8471 25.3163 23.8418 24.6198C23.8321 23.385 22.86 22.366 21.6282 22.2998C20.9786 22.2653 20.3612 22.4917 19.8897 22.9385C19.425 23.3787 19.1583 23.9984 19.1583 24.6381C19.1583 25.3289 19.4612 25.9809 19.9895 26.4271C20.037 26.4673 20.0643 26.5182 20.0643 26.5664V34.9255L14.1471 20.6784C14.1178 20.6082 14.1314 20.5258 14.1816 20.4686L15.0258 19.5065C15.2582 19.2411 15.2319 18.8379 14.9669 18.6055C14.702 18.3731 14.2987 18.3993 14.0663 18.6643L13.2218 19.6268C12.8475 20.0534 12.7504 20.6442 12.9681 21.1681L19.0862 35.8987Z" fill="#3497D2"/>
<path d="M15.3399 15.8047H16.5747L15.9065 16.5664C15.6741 16.8314 15.7003 17.2347 15.9653 17.4674C16.0866 17.5735 16.2366 17.6257 16.3859 17.6257C16.5634 17.6257 16.7399 17.5522 16.8659 17.4082L18.246 15.8357C18.2547 15.8257 18.2623 15.8151 18.2706 15.8044H24.7268L28.8187 20.4686C28.8686 20.5258 28.8822 20.6082 28.8533 20.6784L27.0909 24.9209C26.9559 25.2468 27.1102 25.6201 27.4357 25.7554C27.5158 25.7887 27.5986 25.8043 27.6804 25.8043C27.9304 25.8043 28.1681 25.6564 28.2698 25.4107L30.0322 21.1681C30.25 20.6441 30.1526 20.0533 29.7782 19.6268L26.4253 15.8047H27.6601C28.475 15.8047 29.1379 15.1418 29.1379 14.3269V10.3393C29.1379 9.53112 28.4853 8.87284 27.6791 8.86253V5.94182C27.6791 5.58908 27.3935 5.30349 27.0407 5.30349C26.6883 5.30349 26.4024 5.58908 26.4024 5.94182V8.86154H16.5976V1.27667H26.4024V3.16175C26.4024 3.51449 26.6883 3.80008 27.0407 3.80008C27.3935 3.80008 27.6791 3.51449 27.6791 3.16175V0.638334C27.6791 0.285588 27.3935 0 27.0407 0H15.9593C15.6069 0 15.321 0.285588 15.321 0.638334V8.86253C14.5151 8.87284 13.8621 9.53112 13.8621 10.3393V14.3269C13.8621 15.1418 14.5251 15.8047 15.3399 15.8047ZM15.1388 10.3393C15.1388 10.2286 15.2292 10.1382 15.3399 10.1382H27.6601C27.7708 10.1382 27.8612 10.2286 27.8612 10.3393V14.3269C27.8612 14.4376 27.7708 14.5281 27.6601 14.5281H15.3399C15.2292 14.5281 15.1388 14.4376 15.1388 14.3269V10.3393Z" fill="#3497D2"/>
</svg>
