<svg width="41" height="41" viewBox="0 0 41 41" fill="none" xmlns="http://www.w3.org/2000/svg">
<path d="M35.8691 28.5429C35.6467 28.4508 35.3908 28.5017 35.2206 28.6718L28.7183 35.1742C28.5481 35.3444 28.4972 35.6003 28.5894 35.8226C28.6814 36.045 28.8985 36.1899 29.1391 36.1899H35.6414C35.9701 36.1899 36.2364 35.9236 36.2364 35.5949V29.0925C36.2363 28.8519 36.0914 28.635 35.8691 28.5429ZM30.5753 35L35.0463 30.529V35H30.5753Z" fill="#3497D2"/>
<path d="M40.1704 19.0058C39.9481 18.9136 39.6922 18.9645 39.522 19.1347L37.74 20.9167V8.80041C37.74 8.47175 37.4736 8.20541 37.145 8.20541H32.5733L34.2328 6.54589C34.2331 6.54566 34.2333 6.54534 34.2336 6.5451L35.8326 4.94608C36.1752 4.60349 36.3638 4.14775 36.3638 3.6632C36.3638 3.17865 36.1752 2.72307 35.8326 2.38032L33.9835 0.531266C33.6409 0.188675 33.1852 0 32.7006 0C32.2161 0 31.7604 0.188675 31.4178 0.531266L29.8179 2.13108L27.8848 4.06422L23.7437 8.20533H5.27465V2.31904C5.27465 1.99039 5.00823 1.72404 4.67965 1.72404C2.09933 1.7242 0 3.82337 0 6.40385V31.6755C0 31.7194 0.00506722 31.7622 0.0140932 31.8034C0.0962771 32.8983 0.569983 33.9156 1.36166 34.6879C2.20788 35.5132 3.32496 35.9677 4.50721 35.9677H22.6889L19.2646 39.392C19.0945 39.5622 19.0435 39.818 19.1356 40.0404C19.2277 40.2628 19.4447 40.4077 19.6853 40.4077H39.9427C40.2713 40.4077 40.5377 40.1414 40.5377 39.8127V19.5555C40.5377 19.3149 40.3927 19.0979 40.1704 19.0058ZM32.2594 1.37282C32.5026 1.12943 32.8989 1.12943 33.1421 1.37282L34.9913 3.22196C35.2346 3.46526 35.2346 3.86138 34.9913 4.10476L33.8123 5.28384L31.0802 2.5519L32.2594 1.37282ZM30.2388 3.39337L32.9707 6.12523L31.879 7.21698L29.1472 4.48512L30.2388 3.39337ZM39.3479 26.2412H38.2501C37.9215 26.2412 37.6551 26.5076 37.6551 26.8362C37.6551 27.1649 37.9215 27.4312 38.2501 27.4312H39.3479V29.2242H38.2501C37.9215 29.2242 37.6551 29.4906 37.6551 29.8192C37.6551 30.1479 37.9215 30.4142 38.2501 30.4142H39.3479V32.2071H38.2501C37.9215 32.2071 37.6551 32.4735 37.6551 32.8021C37.6551 33.1308 37.9215 33.3971 38.2501 33.3971H39.3479V35.1902H38.2501C37.9215 35.1902 37.6551 35.4566 37.6551 35.7852C37.6551 36.1138 37.9215 36.3802 38.2501 36.3802H39.3479V39.218H21.1217L27.1318 33.208C27.3641 32.9755 27.3641 32.5989 27.1318 32.3665C27.1051 32.3398 27.0764 32.3167 27.0464 32.2961C26.8148 32.1375 26.496 32.1608 26.2902 32.3665L23.8789 34.7779H4.50729C2.70273 34.7779 1.25002 33.369 1.19285 31.5677C1.19626 31.4547 1.20505 31.3426 1.21914 31.2317C1.21922 31.2311 1.2193 31.2304 1.21938 31.2298C1.22603 31.1772 1.23403 31.1247 1.24313 31.0726C1.24416 31.0667 1.24527 31.0608 1.2463 31.0548C1.25461 31.0084 1.26395 30.9621 1.27417 30.916C1.27702 30.9032 1.28003 30.8904 1.28303 30.8776C1.29206 30.8387 1.3018 30.8 1.31225 30.7614C1.31795 30.7405 1.32389 30.7198 1.32999 30.699C1.33869 30.6688 1.34772 30.6386 1.3573 30.6088C1.36688 30.5789 1.37709 30.5494 1.38747 30.5198C1.39467 30.4992 1.4018 30.4785 1.40956 30.458C1.42405 30.4191 1.43941 30.3805 1.45524 30.3423C1.45975 30.3312 1.46419 30.3201 1.46886 30.3091C1.48921 30.2616 1.51035 30.2146 1.53267 30.1682C1.53362 30.1662 1.5345 30.1643 1.53545 30.1623C2.00084 29.1992 2.89591 28.4812 3.97008 28.2584C3.97309 28.2577 3.9761 28.257 3.97911 28.2564C4.02836 28.2463 4.07808 28.2377 4.12812 28.2297C4.13643 28.2284 4.14474 28.2267 4.15322 28.2254C4.19843 28.2185 4.24411 28.2131 4.28979 28.208C4.30262 28.2066 4.31537 28.2046 4.32827 28.2033C4.37237 28.1989 4.41687 28.196 4.46137 28.1932C4.47546 28.1923 4.48955 28.1908 4.50365 28.1901C4.56192 28.1872 4.62067 28.1857 4.67965 28.1857C5.00823 28.1857 5.27465 27.9193 5.27465 27.5907V23.2765C5.27465 22.9478 5.00823 22.6815 4.67965 22.6815C4.35107 22.6815 4.08465 22.9478 4.08465 23.2765V27.0331C3.07992 27.1602 2.14731 27.6083 1.41193 28.3264C1.33458 28.402 1.26126 28.4805 1.18985 28.5603V6.40385C1.18985 4.6825 2.44287 3.24809 4.08457 2.9648V8.80041V20.8966V20.8966C4.08457 21.2252 4.351 21.4916 4.67957 21.4916C5.00815 21.4916 5.27458 21.2252 5.27458 20.8966V20.8966V9.39541H22.5538L19.2645 12.6847C19.0321 12.9171 19.0321 13.2938 19.2645 13.5261C19.4969 13.7584 19.8736 13.7584 20.1059 13.5261L24.4109 9.22115C24.4111 9.22099 24.4111 9.22083 24.4113 9.22075L28.3055 5.32652L31.0373 8.05846L30.7168 8.37896C30.7166 8.3792 30.7163 8.37943 30.716 8.37967L18.7188 20.3771L15.9869 17.6452L18.3517 15.2804C18.5841 15.048 18.5841 14.6713 18.3517 14.439C18.1193 14.2067 17.7426 14.2067 17.5103 14.439L14.7247 17.2245C14.7098 17.2394 14.6959 17.2551 14.6828 17.2713C14.6785 17.2767 14.6746 17.2825 14.6705 17.2881C14.6621 17.2992 14.6538 17.3105 14.6462 17.3222C14.6418 17.329 14.6378 17.336 14.6337 17.343C14.6271 17.3541 14.6208 17.3653 14.615 17.3768C14.6112 17.3843 14.6078 17.3918 14.6043 17.3996C14.599 17.4112 14.5941 17.4231 14.5896 17.4349C14.588 17.4391 14.586 17.4431 14.5845 17.4473L13.4253 20.7311L12.6349 22.9701C12.6245 22.9999 12.617 23.0301 12.6113 23.0606H10.6326C10.304 23.0606 10.0376 23.3269 10.0376 23.6556C10.0376 23.9842 10.304 24.2506 10.6326 24.2506H27.1101C27.4387 24.2506 27.7051 23.9842 27.7051 23.6556C27.7051 23.3269 27.4387 23.0606 27.1101 23.0606H15.2882L18.9168 21.7797C18.9198 21.7786 18.9226 21.7771 18.9257 21.776C18.9397 21.7707 18.9536 21.7649 18.9673 21.7586C18.9728 21.7561 18.9782 21.7537 18.9835 21.7511C18.9978 21.744 19.0118 21.7361 19.0256 21.7277C19.03 21.7251 19.0346 21.7226 19.039 21.7198C19.0533 21.7106 19.0672 21.7006 19.0809 21.69C19.0843 21.6874 19.0879 21.6851 19.0912 21.6824C19.1078 21.6691 19.124 21.6547 19.1393 21.6394L31.3833 9.39549H36.5499V22.1068L28.0389 30.6179C27.8065 30.8503 27.8065 31.227 28.0389 31.4593C28.0534 31.4738 28.0685 31.4874 28.0841 31.5002C28.1932 31.5891 28.3264 31.6336 28.4596 31.6336C28.5928 31.6336 28.7261 31.5891 28.8351 31.5002C28.8507 31.4875 28.8659 31.4738 28.8804 31.4593C28.8806 31.4591 28.8804 31.4593 28.8806 31.4591L39.3479 20.9917V26.2412ZM17.6305 20.9716L15.9262 21.5733L14.7906 20.4377L15.3923 18.7334L17.6305 20.9716Z" fill="#3497D2"/>
</svg>
