<svg width="37" height="35" viewBox="0 0 37 35" fill="none" xmlns="http://www.w3.org/2000/svg">
<path d="M25.0567 24.6774C24.6636 24.6774 24.3449 24.9969 24.3449 25.3906C24.3449 25.7843 24.6636 26.1038 25.0567 26.1038C25.4496 26.1038 25.7686 25.7843 25.7686 25.3906C25.7686 24.9969 25.4496 24.6774 25.0567 24.6774Z" fill="#3497D2"/>
<path d="M18.9349 12.1247C18.9349 11.7308 18.616 11.4115 18.2231 11.4115C17.8302 11.4115 17.5112 11.7308 17.5112 12.1247C17.5112 12.5184 17.8302 12.838 18.2231 12.838C18.616 12.838 18.9349 12.5184 18.9349 12.1247Z" fill="#3497D2"/>
<path d="M11.3895 26.1038C11.7824 26.1038 12.1013 25.7843 12.1013 25.3906C12.1013 24.9969 11.7824 24.6774 11.3895 24.6774C10.9965 24.6774 10.6776 24.9969 10.6776 25.3906C10.6776 25.7843 10.9965 26.1038 11.3895 26.1038Z" fill="#3497D2"/>
<path d="M36.0232 29.4932L32.1748 27.7801V12.1249C32.1748 11.8424 32.0061 11.5808 31.7377 11.4666L18.9349 5.94935V0.713231C18.9349 0.319282 18.616 0 18.2231 0C17.8299 0 17.5113 0.319282 17.5113 0.713231V5.94935L4.70846 11.4666C4.45403 11.5725 4.27134 11.8307 4.27134 12.1249V27.7801L0.422968 29.4932C0.0637119 29.6534 -0.09812 30.0747 0.0614874 30.4346C0.219983 30.7924 0.6393 30.9578 1.00106 30.7968L4.98763 29.0221L17.942 34.6045C18.1133 34.6784 18.3226 34.6828 18.5045 34.6045L31.4586 29.0221L35.4451 30.7968C35.8083 30.9584 36.2268 30.791 36.3847 30.4346C36.5443 30.0747 36.3825 29.6534 36.0232 29.4932ZM17.5113 7.5023V9.272C17.5113 9.66567 17.8299 9.98523 18.2231 9.98523C18.616 9.98523 18.9349 9.66567 18.9349 9.272V7.5023L29.6614 12.1249L18.2231 17.0543L6.78474 12.1249L17.5113 7.5023ZM9.43829 26.26C9.2784 25.9 8.85769 25.7382 8.49872 25.8978L5.69474 27.1462V13.2079L17.5113 18.3002V32.8663L6.75999 28.2331L9.07681 27.2017C9.43606 27.0415 9.59789 26.62 9.43829 26.26ZM18.9349 32.8663V18.3002L30.7512 13.2079V27.1462L27.9475 25.8981C27.5879 25.7382 27.1675 25.9 27.0079 26.2603C26.8483 26.6202 27.0101 27.0415 27.3694 27.2017L29.6862 28.2331L18.9349 32.8663Z" fill="#3497D2"/>
</svg>
