<svg width="19" height="19" viewBox="0 0 19 19" fill="none" xmlns="http://www.w3.org/2000/svg">
<path d="M8.3672 0C3.75365 0 0 3.75365 0 8.3672C0 12.981 3.75365 16.7344 8.3672 16.7344C12.981 16.7344 16.7344 12.981 16.7344 8.3672C16.7344 3.75365 12.981 0 8.3672 0ZM8.3672 15.1897C4.60531 15.1897 1.54472 12.1291 1.54472 8.36724C1.54472 4.60535 4.60531 1.54472 8.3672 1.54472C12.1291 1.54472 15.1897 4.60531 15.1897 8.3672C15.1897 12.1291 12.1291 15.1897 8.3672 15.1897Z" fill="#5E5E5E"/>
<path d="M18.774 17.6816L14.3458 13.2534C14.044 12.9517 13.5554 12.9517 13.2536 13.2534C12.9519 13.5549 12.9519 14.0441 13.2536 14.3455L17.6818 18.7737C17.8327 18.9246 18.0302 19 18.2279 19C18.4254 19 18.6231 18.9246 18.774 18.7737C19.0757 18.4722 19.0757 17.9831 18.774 17.6816Z" fill="#5E5E5E"/>
</svg>
