<svg width="27" height="35" viewBox="0 0 27 35" fill="none" xmlns="http://www.w3.org/2000/svg">
<path d="M25.2635 8.67737L16.0518 1.09676C15.2795 0.461217 13.9832 0 12.9696 0H2.34944C1.05399 0 0 1.03774 0 2.31352C0.000195763 2.61901 0.0163462 32.8677 0.0163462 33.0262C0.0163462 34.1817 0.82465 34.9887 1.982 34.9887C2.71611 34.9887 24.3862 35 24.3862 35C25.6503 35 26.6403 33.9721 26.6403 32.6598V11.7137C26.6403 10.6106 26.0613 9.33357 25.2635 8.67737ZM12.9696 0.0978813C12.9699 0.0978813 12.9702 0.0978813 12.9705 0.0978813C12.9702 0.0978813 12.9699 0.0978813 12.9696 0.0978813ZM19.3726 22.4593C19.2561 22.6833 19.015 22.8063 18.7278 22.8063H15.5798V30.3167C15.5798 30.8025 15.1993 31.2241 14.7135 31.2241H12.0098C11.5241 31.2241 11.1751 30.8025 11.1751 30.3167V22.8063H7.99622C7.70913 22.8063 7.46815 22.6835 7.35157 22.4595C7.23509 22.2356 7.26377 21.9669 7.42841 21.7318L12.7367 14.1579C12.8885 13.9413 13.1165 13.8184 13.3622 13.8184C13.608 13.8184 13.836 13.9434 13.9877 14.16L19.2955 21.731C19.4604 21.9662 19.4891 22.2353 19.3726 22.4593ZM15.8695 11.1545C15.9147 11.1569 15.9609 11.1585 16.0089 11.1585C15.9611 11.1585 15.9146 11.1571 15.8695 11.1545ZM16.0089 11.0606C14.4502 11.0606 14.4052 9.61674 14.4052 9.4521V3.0304L24.582 11.0606H16.0089Z" fill="#D5D5E2"/>
</svg>
