<svg width="18" height="19" viewBox="0 0 18 19" fill="none" xmlns="http://www.w3.org/2000/svg">
<path d="M18 9.56653C18 4.59673 13.9698 0.566528 9 0.566528C4.0302 0.566528 0 4.59673 0 9.56653C0 14.5363 4.0302 18.5665 9 18.5665C9.05287 18.5665 9.10547 18.5654 9.1582 18.5645V11.5583H7.22461V9.30492H9.1582V7.64667C9.1582 5.72351 10.3322 4.67679 12.0477 4.67679C12.8692 4.67679 13.5754 4.73804 13.7812 4.76537V6.77531H12.5983C11.665 6.77531 11.4843 7.21889 11.4843 7.86969V9.30492H13.7159L13.425 11.5583H11.4843V18.2188C15.2461 17.1404 18 13.6746 18 9.56653Z" fill="#3497D2"/>
</svg>
