<svg width="18" height="19" viewBox="0 0 18 19" fill="none" xmlns="http://www.w3.org/2000/svg">
<path d="M10.7227 9.56653C10.7227 10.5179 9.95142 11.2892 9 11.2892C8.04858 11.2892 7.27734 10.5179 7.27734 9.56653C7.27734 8.61511 8.04858 7.84387 9 7.84387C9.95142 7.84387 10.7227 8.61511 10.7227 9.56653Z" fill="#3497D2"/>
<path d="M13.0287 6.51869C12.9459 6.2943 12.8138 6.09119 12.6421 5.92447C12.4754 5.75281 12.2724 5.6207 12.0479 5.53789C11.8658 5.46716 11.5922 5.38298 11.0884 5.36005C10.5433 5.33519 10.3799 5.32983 9 5.32983C7.61998 5.32983 7.45656 5.33505 6.91164 5.35991C6.40778 5.38298 6.13408 5.46716 5.95212 5.53789C5.72758 5.6207 5.52448 5.75281 5.35789 5.92447C5.18623 6.09119 5.05412 6.29416 4.97118 6.51869C4.90045 6.70079 4.81627 6.97449 4.79333 7.47835C4.76848 8.02327 4.76312 8.18669 4.76312 9.56671C4.76312 10.9466 4.76848 11.11 4.79333 11.6551C4.81627 12.1589 4.90045 12.4325 4.97118 12.6146C5.05412 12.8391 5.1861 13.0421 5.35776 13.2088C5.52448 13.3805 5.72745 13.5126 5.95198 13.5954C6.13408 13.6663 6.40778 13.7504 6.91164 13.7734C7.45656 13.7982 7.61984 13.8035 8.99986 13.8035C10.38 13.8035 10.5434 13.7982 11.0882 13.7734C11.5921 13.7504 11.8658 13.6663 12.0479 13.5954C12.4986 13.4215 12.8548 13.0653 13.0287 12.6146C13.0994 12.4325 13.1836 12.1589 13.2067 11.6551C13.2315 11.11 13.2367 10.9466 13.2367 9.56671C13.2367 8.18669 13.2315 8.02327 13.2067 7.47835C13.1837 6.97449 13.0995 6.70079 13.0287 6.51869ZM9 12.2203C7.53429 12.2203 6.34612 11.0323 6.34612 9.56657C6.34612 8.10086 7.53429 6.91283 9 6.91283C10.4656 6.91283 11.6537 8.10086 11.6537 9.56657C11.6537 11.0323 10.4656 12.2203 9 12.2203ZM11.7587 7.42809C11.4162 7.42809 11.1385 7.15041 11.1385 6.80791C11.1385 6.46541 11.4162 6.18773 11.7587 6.18773C12.1012 6.18773 12.3788 6.46541 12.3788 6.80791C12.3787 7.15041 12.1012 7.42809 11.7587 7.42809Z" fill="#3497D2"/>
<path d="M9 0.566528C4.0302 0.566528 0 4.59673 0 9.56653C0 14.5363 4.0302 18.5665 9 18.5665C13.9698 18.5665 18 14.5363 18 9.56653C18 4.59673 13.9698 0.566528 9 0.566528ZM14.1368 11.6972C14.1118 12.2473 14.0243 12.6229 13.8966 12.9517C13.6281 13.6459 13.0794 14.1947 12.3852 14.4631C12.0565 14.5909 11.6808 14.6782 11.1308 14.7033C10.5797 14.7285 10.4036 14.7345 9.00014 14.7345C7.5965 14.7345 7.42058 14.7285 6.86934 14.7033C6.31934 14.6782 5.9436 14.5909 5.61497 14.4631C5.27 14.3334 4.95772 14.13 4.69954 13.867C4.43669 13.6089 4.23331 13.2965 4.10353 12.9517C3.97581 12.6231 3.88834 12.2473 3.86334 11.6973C3.83794 11.1461 3.83203 10.97 3.83203 9.56653C3.83203 8.16302 3.83794 7.98697 3.8632 7.43587C3.8882 6.88573 3.97554 6.51013 4.10326 6.18137C4.23303 5.83653 4.43655 5.52411 4.69954 5.26607C4.95758 5.00308 5.27 4.7997 5.61484 4.66992C5.9436 4.54221 6.3192 4.45486 6.86934 4.42973C7.42044 4.4046 7.5965 4.39856 9 4.39856C10.4035 4.39856 10.5796 4.4046 11.1307 4.42987C11.6808 4.45486 12.0564 4.54221 12.3852 4.66978C12.73 4.79956 13.0424 5.00308 13.3006 5.26607C13.5634 5.52425 13.767 5.83653 13.8966 6.18137C14.0245 6.51013 14.1118 6.88573 14.1369 7.43587C14.1621 7.98697 14.168 8.16302 14.168 9.56653C14.168 10.97 14.1621 11.1461 14.1368 11.6972Z" fill="#3497D2"/>
</svg>
