<svg width="18" height="19" viewBox="0 0 18 19" fill="none" xmlns="http://www.w3.org/2000/svg">
<path d="M9 0.56665C4.0302 0.56665 0 4.59685 0 9.56665C0 14.5365 4.0302 18.5667 9 18.5667C13.9698 18.5667 18 14.5365 18 9.56665C18 4.59685 13.9698 0.56665 9 0.56665ZM13.1093 7.58389C13.1133 7.67247 13.1152 7.76146 13.1152 7.85086C13.1152 10.5806 11.0374 13.7283 7.23766 13.7284H7.23779H7.23766C6.07104 13.7284 4.98546 13.3865 4.07126 12.8005C4.23289 12.8196 4.39742 12.829 4.564 12.829C5.53189 12.829 6.42261 12.4989 7.12971 11.9448C6.2254 11.928 5.46295 11.3308 5.19983 10.51C5.32576 10.5341 5.45526 10.5473 5.58806 10.5473C5.77661 10.5473 5.95926 10.5219 6.13284 10.4745C5.18761 10.2853 4.47556 9.44992 4.47556 8.44962C4.47556 8.44028 4.47556 8.4319 4.47583 8.42325C4.7542 8.57802 5.07253 8.67113 5.41145 8.68156C4.85678 8.31146 4.49217 7.67879 4.49217 6.96207C4.49217 6.58359 4.59448 6.229 4.77191 5.92372C5.79062 7.17369 7.31305 7.99574 9.02994 8.08212C8.99451 7.93079 8.97624 7.77313 8.97624 7.61108C8.97624 6.4707 9.90143 5.54552 11.0422 5.54552C11.6364 5.54552 12.1731 5.79669 12.5501 6.19824C13.0207 6.10541 13.4626 5.93347 13.8619 5.69685C13.7074 6.17902 13.38 6.58359 12.9534 6.83943C13.3713 6.78944 13.7696 6.67862 14.1397 6.5141C13.8632 6.92842 13.5126 7.29234 13.1093 7.58389Z" fill="#3497D2"/>
</svg>
