<svg width="11" height="11" fill="none" xmlns="http://www.w3.org/2000/svg"><path d="M6.712 4.288a2.566 2.566 0 00-3.63 0L.751 6.62a2.566 2.566 0 003.627 3.631l1.925-1.925a.183.183 0 00-.13-.313h-.074c-.402.001-.8-.076-1.173-.227a.183.183 0 00-.2.04L3.342 9.213a1.1 1.1 0 11-1.556-1.556l2.341-2.34a1.1 1.1 0 011.554 0 .75.75 0 001.03 0c.125-.124.2-.29.213-.465a.733.733 0 00-.212-.564z" fill="#3497D2"/><path d="M10.247.752a2.566 2.566 0 00-3.629 0l-1.923 1.92a.183.183 0 00.134.314h.068c.401 0 .8.077 1.171.23a.183.183 0 00.2-.041l1.38-1.379a1.1 1.1 0 011.556 1.557L7.485 5.07l-.015.017-.6.597a1.1 1.1 0 01-1.555 0 .752.752 0 00-1.03 0 .733.733 0 000 1.034c.212.213.46.387.733.513.038.019.077.033.115.05.039.016.08.03.118.044.038.014.078.027.117.038l.108.03a2.55 2.55 0 00.495.071h.139l.11-.013c.04-.002.083-.01.13-.01h.063l.126-.019.059-.011.106-.022h.02c.45-.113.862-.346 1.19-.675l2.333-2.333a2.566 2.566 0 000-3.63z" fill="#3497D2"/></svg>