<svg width="37" height="35" fill="none" xmlns="http://www.w3.org/2000/svg"><path d="M25.057 24.677a.713.713 0 10.001 1.426.713.713 0 00-.001-1.426zm-6.122-12.552a.713.713 0 10-1.425-.001.713.713 0 001.425 0zM11.39 26.104a.713.713 0 10-.002-1.426.713.713 0 00.002 1.426z" fill="#3497D2"/><path d="M36.023 29.493l-3.848-1.713V12.125a.717.717 0 00-.437-.658L18.935 5.949V.713a.713.713 0 10-1.424 0V5.95L4.708 11.467a.718.718 0 00-.437.658V27.78L.423 29.493a.714.714 0 00.578 1.304l3.987-1.775 12.954 5.583c.171.073.38.078.563 0l12.954-5.583 3.986 1.775a.714.714 0 00.578-1.304zM17.511 7.503v1.769a.713.713 0 101.424 0v-1.77l10.726 4.623-11.438 4.93-11.438-4.93L17.51 7.502zM9.438 26.26a.712.712 0 00-.94-.362l-2.803 1.248V13.208L17.51 18.3v14.566L6.76 28.233l2.317-1.031a.714.714 0 00.361-.942zm9.497 6.606V18.3l11.816-5.092v13.938l-2.803-1.248a.714.714 0 00-.578 1.304l2.316 1.031-10.751 4.633z" fill="#3497D2"/></svg>